_Griffith_Gothic-Italic_WebTT.ufo
<glyph name="exclam" format="1">
  <advance width="514.048"/>
  <unicode hex="0021"/>
  <outline>
    <contour>
      <point x="154" y="219" type="qcurve" smooth="yes"/>
      <point x="204.0" y="219.0"/>
      <point x="270.0" y="152.746268657"/>
      <point x="270" y="102" type="qcurve" smooth="yes"/>
      <point x="270.0" y="52.0"/>
      <point x="204.0" y="-14.0"/>
      <point x="154" y="-14" type="qcurve" smooth="yes"/>
      <point x="103.253731343" y="-14.0"/>
      <point x="37.0" y="52.0"/>
      <point x="37" y="102" type="qcurve" smooth="yes"/>
      <point x="37.0" y="152.746268657"/>
      <point x="103.253731343" y="219.0"/>
    </contour>
    <contour>
      <point x="383" y="1475" type="line"/>
      <point x="602" y="1475" type="line"/>
      <point x="281" y="438" type="line"/>
      <point x="184" y="438" type="line"/>
    </contour>
  </outline>
</glyph>
<glyph name="quotedbl" format="1">
  <advance width="737.28"/>
  <unicode hex="0022"/>
  <outline>
    <contour>
      <point x="305" y="1475" type="line"/>
      <point x="496" y="1475" type="line"/>
      <point x="332" y="1001" type="line"/>
      <point x="231" y="1001" type="line"/>
    </contour>
    <contour>
      <point x="637" y="1475" type="line"/>
      <point x="829" y="1475" type="line"/>
      <point x="666" y="1001" type="line"/>
      <point x="565" y="1001" type="line"/>
    </contour>
  </outline>
</glyph>
<glyph name="numbersign" format="1">
  <advance width="1269.76"/>
  <unicode hex="0023"/>
  <outline>
    <contour>
      <point x="1104" y="1081" type="line"/>
      <point x="1333" y="1081" type="line"/>
      <point x="1298" y="938" type="line"/>
      <point x="1055" y="938" type="line"/>
      <point x="915" y="537" type="line"/>
      <point x="1169" y="537" type="line"/>
      <point x="1133" y="393" type="line"/>
      <point x="864" y="393" type="line"/>
      <point x="731" y="0" type="line"/>
      <point x="621" y="0" type="line"/>
      <point x="756" y="393" type="line"/>
      <point x="389" y="393" type="line"/>
      <point x="254" y="0" type="line"/>
      <point x="143" y="0" type="line"/>
      <point x="279" y="393" type="line"/>
      <point x="49" y="393" type="line"/>
      <point x="84" y="537" type="line"/>
      <point x="328" y="537" type="line"/>
      <point x="467" y="938" type="line"/>
      <point x="215" y="938" type="line"/>
      <point x="250" y="1081" type="line"/>
      <point x="518" y="1081" type="line"/>
      <point x="653" y="1475" type="line"/>
      <point x="762" y="1475" type="line"/>
      <point x="629" y="1081" type="line"/>
      <point x="991" y="1081" type="line"/>
      <point x="1128" y="1475" type="line"/>
      <point x="1239" y="1475" type="line"/>
    </contour>
    <contour>
      <point x="805" y="532" type="line"/>
      <point x="946" y="942" type="line"/>
      <point x="575" y="942" type="line"/>
      <point x="436" y="532" type="line"/>
    </contour>
  </outline>
</glyph>
<glyph name="dollar" format="1">
  <advance width="1140.736"/>
  <unicode hex="0024"/>
  <outline>
    <contour>
      <point x="862" y="1462" type="line"/>
      <point x="961.253731343" y="1442.59701493"/>
      <point x="1121.31343284" y="1339.6119403"/>
      <point x="1184" y="1262" type="qcurve"/>
      <point x="1077" y="1157" type="line"/>
      <point x="1027.0" y="1224.1641791"/>
      <point x="901.358208955" y="1317.08955224"/>
      <point x="823" y="1335" type="qcurve"/>
      <point x="694" y="813" type="line"/>
      <point x="871.611940299" y="724.194029851"/>
      <point x="1026.0" y="542.865671642"/>
      <point x="1026" y="416" type="qcurve" smooth="yes"/>
      <point x="1026.0" y="226.447761194"/>
      <point x="739.164179104" y="-2.0"/>
      <point x="522" y="-2" type="qcurve" smooth="yes"/>
      <point x="500" y="-2" type="line"/>
      <point x="451" y="-195" type="line"/>
      <point x="336" y="-195" type="line"/>
      <point x="389" y="10" type="line"/>
      <point x="266.611940299" y="33.1343283582"/>
      <point x="70.1791044776" y="156.686567164"/>
      <point x="6" y="244" type="qcurve"/>
      <point x="113" y="348" type="line"/>
      <point x="175.686567164" y="262.179104478"/>
      <point x="326.746268657" y="153.656716418"/>
      <point x="426" y="135" type="qcurve"/>
      <point x="573" y="717" type="line"/>
      <point x="426.731343284" y="790.134328358"/>
      <point x="262.0" y="953.656716418"/>
      <point x="262" y="1085" type="qcurve" smooth="yes"/>
      <point x="262.0" y="1265.59701493"/>
      <point x="529.955223881" y="1477.0"/>
      <point x="721" y="1477" type="qcurve" smooth="yes"/>
      <point x="752" y="1477" type="line"/>
      <point x="772" y="1561" type="line"/>
      <point x="887" y="1561" type="line"/>
    </contour>
    <contour>
      <point x="535" y="127" type="line" smooth="yes"/>
      <point x="698.432835821" y="127.0"/>
      <point x="864.0" y="285.328358209"/>
      <point x="864" y="401" type="qcurve" smooth="yes"/>
      <point x="864.0" y="482.343283582"/>
      <point x="770.432835821" y="609.313432836"/>
      <point x="657" y="672" type="qcurve"/>
      <point x="522" y="127" type="line"/>
    </contour>
    <contour>
      <point x="608" y="858" type="qcurve"/>
      <point x="731" y="1348" type="line"/>
      <point x="713" y="1348" type="line" smooth="yes"/>
      <point x="580.164179104" y="1348.0"/>
      <point x="424.0" y="1212.68656716"/>
      <point x="424" y="1100" type="qcurve" smooth="yes"/>
      <point x="424.0" y="1023.13432836"/>
      <point x="507.253731343" y="914.71641791"/>
    </contour>
  </outline>
</glyph>
<glyph name="parenright" format="1">
  <advance width="671.744"/>
  <unicode hex="0029"/>
  <outline>
    <contour>
      <point x="434" y="1505" type="line"/>
      <point x="510.865671642" y="1381.11940299"/>
      <point x="616.0" y="1063.86567164"/>
      <point x="616" y="887" type="qcurve" smooth="yes"/>
      <point x="616.0" y="557.895522388"/>
      <point x="290.701492537" y="-0.223880597015"/>
      <point x="31" y="-195" type="qcurve"/>
      <point x="-139" y="-195" type="line"/>
      <point x="142.343283582" y="36.3432835821"/>
      <point x="430.0" y="603.746268657"/>
      <point x="430" y="903" type="qcurve" smooth="yes"/>
      <point x="430.0" y="1077.62686567"/>
      <point x="364.134328358" y="1354.25373134"/>
      <point x="291" y="1505" type="qcurve"/>
    </contour>
  </outline>
</glyph>
<glyph name="asterisk" format="1">
  <advance width="901.12"/>
  <unicode hex="002A"/>
  <outline>
    <contour>
      <point x="911" y="1307" type="line"/>
      <point x="961" y="1151" type="line"/>
      <point x="643" y="1098" type="line"/>
      <point x="877" y="866" type="line"/>
      <point x="743" y="770" type="line"/>
      <point x="588" y="1067" type="line"/>
      <point x="432" y="770" type="line"/>
      <point x="299" y="866" type="line"/>
      <point x="530" y="1098" type="line"/>
      <point x="211" y="1151" type="line"/>
      <point x="262" y="1307" type="line"/>
      <point x="555" y="1153" type="line"/>
      <point x="504" y="1475" type="line"/>
      <point x="670" y="1475" type="line"/>
      <point x="618" y="1153" type="line"/>
    </contour>
  </outline>
</glyph>
<glyph name="comma" format="1">
  <advance width="405.504"/>
  <unicode hex="002C"/>
  <outline>
    <contour>
      <point x="53" y="231" type="line"/>
      <point x="260" y="231" type="line"/>
      <point x="-16" y="-242" type="line"/>
      <point x="-129" y="-242" type="line"/>
    </contour>
  </outline>
</glyph>
<glyph name="hyphen" format="1">
  <advance width="647.168"/>
  <unicode hex="002D"/>
  <unicode hex="2010"/>
  <unicode hex="2011"/>
  <outline>
    <contour>
      <point x="106" y="657" type="line"/>
      <point x="600" y="657" type="line"/>
      <point x="561" y="500" type="line"/>
      <point x="68" y="500" type="line"/>
    </contour>
  </outline>
</glyph>
<glyph name="period" format="1">
  <advance width="405.504"/>
  <unicode hex="002E"/>
  <outline>
    <contour>
      <point x="98" y="225" type="qcurve" smooth="yes"/>
      <point x="150.23880597" y="225.0"/>
      <point x="219.0" y="156.746268657"/>
      <point x="219" y="106" type="qcurve" smooth="yes"/>
      <point x="219.0" y="54.5074626866"/>
      <point x="150.23880597" y="-14.0"/>
      <point x="98" y="-14" type="qcurve" smooth="yes"/>
      <point x="48.0" y="-14.0"/>
      <point x="-20.0" y="54.5074626866"/>
      <point x="-20" y="106" type="qcurve" smooth="yes"/>
      <point x="-20.0" y="156.746268657"/>
      <point x="48.0" y="225.0"/>
    </contour>
  </outline>
</glyph>
<glyph name="zero" format="1">
  <advance width="1224.704"/>
  <unicode hex="0030"/>
  <outline>
    <contour>
      <point x="1206" y="1022" type="qcurve" smooth="yes"/>
      <point x="1206" y="1016" type="line" smooth="yes"/>
      <point x="1206.0" y="937.641791045"/>
      <point x="1186.1641791" y="768.388059701"/>
      <point x="1169" y="696" type="qcurve" smooth="yes"/>
      <point x="1092.88059701" y="367.641791045"/>
      <point x="745.611940299" y="-25.0"/>
      <point x="518" y="-25" type="qcurve" smooth="yes"/>
      <point x="328.447761194" y="-25.0"/>
      <point x="119.0" y="234.343283582"/>
      <point x="119" y="453" type="qcurve" smooth="yes"/>
      <point x="119" y="459" type="line" smooth="yes"/>
      <point x="119.0" y="536.611940299"/>
      <point x="138.835820896" y="706.358208955"/>
      <point x="156" y="778" type="qcurve" smooth="yes"/>
      <point x="230.626865672" y="1107.10447761"/>
      <point x="579.388059701" y="1499.0"/>
      <point x="807" y="1499" type="qcurve" smooth="yes"/>
      <point x="995.059701493" y="1499.0"/>
      <point x="1206.0" y="1240.65671642"/>
    </contour>
    <contour>
      <point x="969" y="664" type="qcurve" smooth="yes"/>
      <point x="992.880597015" y="752.059701493"/>
      <point x="1020.0" y="940.149253731"/>
      <point x="1020" y="1020" type="qcurve" smooth="yes"/>
      <point x="1020" y="1024" type="line" smooth="yes"/>
      <point x="1020.0" y="1169.52238806"/>
      <point x="910.164179104" y="1352.0"/>
      <point x="793" y="1352" type="qcurve" smooth="yes"/>
      <point x="648.970149254" y="1352.0"/>
      <point x="421.671641791" y="1052.79104478"/>
      <point x="356" y="811" type="qcurve" smooth="yes"/>
      <point x="332.119402985" y="722.194029851"/>
      <point x="305.0" y="534.104477612"/>
      <point x="305" y="455" type="qcurve" smooth="yes"/>
      <point x="305" y="451" type="line" smooth="yes"/>
      <point x="305.0" y="305.47761194"/>
      <point x="414.835820896" y="123.0"/>
      <point x="532" y="123" type="qcurve" smooth="yes"/>
      <point x="674.537313433" y="123.0"/>
      <point x="901.835820896" y="422.208955224"/>
    </contour>
  </outline>
</glyph>
<glyph name="one" format="1">
  <advance width="907.264"/>
  <unicode hex="0031"/>
  <outline>
    <contour>
      <point x="311" y="1475" type="line"/>
      <point x="811" y="1475" type="line"/>
      <point x="475" y="125" type="line"/>
      <point x="760" y="125" type="line"/>
      <point x="727" y="0" type="line"/>
      <point x="-33" y="0" type="line"/>
      <point x="0" y="125" type="line"/>
      <point x="291" y="125" type="line"/>
      <point x="596" y="1350" type="line"/>
      <point x="281" y="1350" type="line"/>
    </contour>
  </outline>
</glyph>
<glyph name="four" format="1">
  <advance width="1189.888"/>
  <unicode hex="0034"/>
  <outline>
    <contour>
      <point x="909" y="1475" type="line"/>
      <point x="1163" y="1475" type="line"/>
      <point x="924" y="518" type="line"/>
      <point x="1118" y="518" type="line"/>
      <point x="1090" y="403" type="line"/>
      <point x="897" y="403" type="line"/>
      <point x="795" y="0" type="line"/>
      <point x="618" y="0" type="line"/>
      <point x="719" y="403" type="line"/>
      <point x="41" y="403" type="line"/>
      <point x="84" y="571" type="line"/>
    </contour>
    <contour>
      <point x="748" y="518" type="line"/>
      <point x="948" y="1317" type="line"/>
      <point x="924" y="1317" type="line"/>
      <point x="213" y="543" type="line"/>
      <point x="207" y="518" type="line"/>
    </contour>
  </outline>
</glyph>
<glyph name="six" format="1">
  <advance width="1155.072"/>
  <unicode hex="0036"/>
  <outline>
    <contour>
      <point x="1094" y="545" type="qcurve" smooth="yes"/>
      <point x="1094.0" y="314.402985075"/>
      <point x="754.298507463" y="-25.0"/>
      <point x="514" y="-25" type="qcurve" smooth="yes"/>
      <point x="324.447761194" y="-25.0"/>
      <point x="86.0" y="189.507462687"/>
      <point x="86" y="391" type="qcurve" smooth="yes"/>
      <point x="86.0" y="716.373134328"/>
      <point x="525.23880597" y="1286.94029851"/>
      <point x="823" y="1475" type="qcurve"/>
      <point x="1090" y="1475" type="line"/>
      <point x="804.179104478" y="1314.55223881"/>
      <point x="404.626865672" y="926.417910448"/>
      <point x="330" y="760" type="qcurve"/>
      <point x="342" y="760" type="line"/>
      <point x="430.805970149" y="842.089552239"/>
      <point x="610.552238806" y="926.0"/>
      <point x="721" y="926" type="qcurve" smooth="yes"/>
      <point x="885.925373134" y="926.0"/>
      <point x="1094.0" y="734.552238806"/>
    </contour>
    <contour>
      <point x="262" y="379" type="qcurve" smooth="yes"/>
      <point x="262.0" y="255.119402985"/>
      <point x="407.343283582" y="109.0"/>
      <point x="526" y="109" type="qcurve" smooth="yes"/>
      <point x="683.462686567" y="109.0"/>
      <point x="907.0" y="356.089552239"/>
      <point x="907" y="524" type="qcurve" smooth="yes"/>
      <point x="907.0" y="652.358208955"/>
      <point x="774.373134328" y="795.0"/>
      <point x="649" y="795" type="qcurve" smooth="yes"/>
      <point x="496.014925373" y="795.0"/>
      <point x="262.0" y="557.358208955"/>
    </contour>
  </outline>
</glyph>
<glyph name="seven" format="1">
  <advance width="1030.144"/>
  <unicode hex="0037"/>
  <outline>
    <contour>
      <point x="264" y="1475" type="line"/>
      <point x="1219" y="1475" type="line"/>
      <point x="1190" y="1362" type="line"/>
      <point x="905.671641791" y="1076.17910448"/>
      <point x="428.820895522" y="339.552238806"/>
      <point x="293" y="0" type="qcurve"/>
      <point x="96" y="0" type="line"/>
      <point x="222.865671642" y="302.985074627"/>
      <point x="693.179104478" y="1034.70149254"/>
      <point x="979" y="1325" type="qcurve"/>
      <point x="229" y="1325" type="line"/>
    </contour>
  </outline>
</glyph>
<glyph name="eight" format="1">
  <advance width="1200.128"/>
  <unicode hex="0038"/>
  <outline>
    <contour>
      <point x="760" y="1499" type="qcurve" smooth="yes"/>
      <point x="964.47761194" y="1499.0"/>
      <point x="1196.0" y="1307.95522388"/>
      <point x="1196" y="1149" type="qcurve" smooth="yes"/>
      <point x="1196.0" y="1000.49253731"/>
      <point x="989.910447761" y="807.582089552"/>
      <point x="872" y="774" type="qcurve"/>
      <point x="868" y="762" type="line"/>
      <point x="962.776119403" y="717.223880597"/>
      <point x="1092.0" y="555.880597015"/>
      <point x="1092" y="432" type="qcurve" smooth="yes"/>
      <point x="1092.0" y="242.447761194"/>
      <point x="783.059701493" y="-23.0"/>
      <point x="545" y="-23" type="qcurve" smooth="yes"/>
      <point x="324.850746269" y="-23.0"/>
      <point x="72.0" y="192.597014925"/>
      <point x="72" y="362" type="qcurve" smooth="yes"/>
      <point x="72.0" y="538.119402985"/>
      <point x="303.0" y="761.447761194"/>
      <point x="453" y="801" type="qcurve"/>
      <point x="457" y="815" type="line"/>
      <point x="369.686567164" y="865.746268657"/>
      <point x="274.0" y="1003.76119403"/>
      <point x="274" y="1106" type="qcurve" smooth="yes"/>
      <point x="274.0" y="1269.43283582"/>
      <point x="547.313432836" y="1499.0"/>
    </contour>
    <contour>
      <point x="553" y="109" type="qcurve" smooth="yes"/>
      <point x="710.462686567" y="109.0"/>
      <point x="913.0" y="305.701492537"/>
      <point x="913" y="446" type="qcurve" smooth="yes"/>
      <point x="913.0" y="568.388059701"/>
      <point x="751.074626866" y="729.0"/>
      <point x="616" y="729" type="qcurve" smooth="yes"/>
      <point x="466.746268657" y="729.0"/>
      <point x="254.0" y="523.805970149"/>
      <point x="254" y="385" type="qcurve" smooth="yes"/>
      <point x="254.0" y="262.611940299"/>
      <point x="407.47761194" y="109.0"/>
    </contour>
    <contour>
      <point x="702" y="838" type="qcurve" smooth="yes"/>
      <point x="843.044776119" y="838.0"/>
      <point x="1014.0" y="1024.58208955"/>
      <point x="1014" y="1141" type="qcurve" smooth="yes"/>
      <point x="1014.0" y="1241.74626866"/>
      <point x="877.373134328" y="1368.0"/>
      <point x="752" y="1368" type="qcurve" smooth="yes"/>
      <point x="615.432835821" y="1368.0"/>
      <point x="451.0" y="1201.92537313"/>
      <point x="451" y="1087" type="qcurve" smooth="yes"/>
      <point x="451.0" y="974.313432836"/>
      <point x="593.791044776" y="838.0"/>
    </contour>
  </outline>
</glyph>
<glyph name="nine" format="1">
  <advance width="1155.072"/>
  <unicode hex="0039"/>
  <outline>
    <contour>
      <point x="739" y="1499" type="qcurve" smooth="yes"/>
      <point x="930.044776119" y="1499.0"/>
      <point x="1169.0" y="1285.23880597"/>
      <point x="1169" y="1083" type="qcurve" smooth="yes"/>
      <point x="1169.0" y="757.626865672"/>
      <point x="730.268656716" y="188.059701493"/>
      <point x="434" y="0" type="qcurve"/>
      <point x="166" y="0" type="line"/>
      <point x="451.820895522" y="160.447761194"/>
      <point x="851.134328358" y="548.582089552"/>
      <point x="928" y="715" type="qcurve"/>
      <point x="913" y="715" type="line"/>
      <point x="824.940298507" y="632.164179104"/>
      <point x="645.208955224" y="549.0"/>
      <point x="537" y="549" type="qcurve" smooth="yes"/>
      <point x="371.328358209" y="549.0"/>
      <point x="164.0" y="740.447761194"/>
      <point x="164" y="930" type="qcurve" smooth="yes"/>
      <point x="164.0" y="1160.59701493"/>
      <point x="502.432835821" y="1499.0"/>
    </contour>
    <contour>
      <point x="606" y="680" type="qcurve" smooth="yes"/>
      <point x="758.985074627" y="680.0"/>
      <point x="995.0" y="916.895522388"/>
      <point x="995" y="1096" type="qcurve" smooth="yes"/>
      <point x="995.0" y="1219.88059701"/>
      <point x="849.388059701" y="1366.0"/>
      <point x="727" y="1366" type="qcurve" smooth="yes"/>
      <point x="572.52238806" y="1366.0"/>
      <point x="348.0" y="1118.65671642"/>
      <point x="348" y="950" type="qcurve" smooth="yes"/>
      <point x="348.0" y="821.641791045"/>
      <point x="482.119402985" y="680.0"/>
    </contour>
  </outline>
</glyph>
<glyph name="greater" format="1">
  <advance width="1228.8"/>
  <unicode hex="003E"/>
  <outline>
    <contour>
      <point x="1182" y="803" type="line"/>
      <point x="1182" y="651" type="line"/>
      <point x="160" y="195" type="line"/>
      <point x="160" y="358" type="line"/>
      <point x="1008" y="727" type="line"/>
      <point x="160" y="1096" type="line"/>
      <point x="160" y="1260" type="line"/>
    </contour>
  </outline>
</glyph>
<glyph name="question" format="1">
  <advance width="931.84"/>
  <unicode hex="003F"/>
  <outline>
    <contour>
      <point x="664" y="1499" type="qcurve" smooth="yes"/>
      <point x="824.447761194" y="1499.0"/>
      <point x="1014.0" y="1342.35820896"/>
      <point x="1014" y="1214" type="qcurve" smooth="yes"/>
      <point x="1014.0" y="1072.20895522"/>
      <point x="850.507462687" y="879.76119403"/>
      <point x="702" y="782" type="qcurve" smooth="yes"/>
      <point x="589.313432836" y="707.373134328"/>
      <point x="491.567164179" y="576.059701493"/>
      <point x="455" y="438" type="qcurve"/>
      <point x="334" y="438" type="line"/>
      <point x="366.089552239" y="624.567164179"/>
      <point x="478.656716418" y="797.686567164"/>
      <point x="610" y="885" type="qcurve" smooth="yes"/>
      <point x="707.76119403" y="950.671641791"/>
      <point x="831.0" y="1099.2238806"/>
      <point x="831" y="1194" type="qcurve" smooth="yes"/>
      <point x="831.0" y="1276.8358209"/>
      <point x="726.343283582" y="1356.0"/>
      <point x="645" y="1356" type="qcurve" smooth="yes"/>
      <point x="560.671641791" y="1356.0"/>
      <point x="416.626865672" y="1258.2238806"/>
      <point x="342" y="1153" type="qcurve"/>
      <point x="221" y="1231" type="line"/>
      <point x="308.313432836" y="1363.8358209"/>
      <point x="530.417910448" y="1499.0"/>
    </contour>
    <contour>
      <point x="324" y="219" type="qcurve" smooth="yes"/>
      <point x="374.0" y="219.0"/>
      <point x="440.0" y="152.746268657"/>
      <point x="440" y="102" type="qcurve" smooth="yes"/>
      <point x="440.0" y="52.0"/>
      <point x="374.0" y="-14.0"/>
      <point x="324" y="-14" type="qcurve" smooth="yes"/>
      <point x="273.253731343" y="-14.0"/>
      <point x="207.0" y="52.0"/>
      <point x="207" y="102" type="qcurve" smooth="yes"/>
      <point x="207.0" y="152.746268657"/>
      <point x="273.253731343" y="219.0"/>
    </contour>
  </outline>
</glyph>
<glyph name="A" format="1">
  <advance width="1366.016"/>
  <unicode hex="0041"/>
  <outline>
    <contour>
      <point x="1047" y="1483" type="line"/>
      <point x="1182" y="0" type="line"/>
      <point x="995" y="0" type="line"/>
      <point x="967" y="379" type="line"/>
      <point x="332" y="379" type="line"/>
      <point x="113" y="0" type="line"/>
      <point x="-80" y="0" type="line"/>
      <point x="793" y="1483" type="line"/>
    </contour>
    <contour>
      <point x="401" y="510" type="line"/>
      <point x="963" y="510" type="line"/>
      <point x="895" y="1335" type="line"/>
      <point x="881" y="1335" type="line"/>
    </contour>
  </outline>
</glyph>
<glyph name="B" format="1">
  <advance width="1247.232"/>
  <unicode hex="0042"/>
  <outline>
    <contour>
      <point x="844" y="1475" type="line" smooth="yes"/>
      <point x="1052.95522388" y="1475.0"/>
      <point x="1264.0" y="1309.53731343"/>
      <point x="1264" y="1167" type="qcurve" smooth="yes"/>
      <point x="1264.0" y="1019.23880597"/>
      <point x="1047.50746269" y="821.820895522"/>
      <point x="899" y="786" type="qcurve"/>
      <point x="899" y="778" type="line"/>
      <point x="1005.71641791" y="745.910447761"/>
      <point x="1147.0" y="601.388059701"/>
      <point x="1147" y="479" type="qcurve" smooth="yes"/>
      <point x="1147.0" y="254.373134328"/>
      <point x="808.641791045" y="0.0"/>
      <point x="537" y="0" type="qcurve" smooth="yes"/>
      <point x="27" y="0" type="line"/>
      <point x="393" y="1475" type="line"/>
    </contour>
    <contour>
      <point x="528" y="139" type="line" smooth="yes"/>
      <point x="727.253731343" y="139.0"/>
      <point x="969.0" y="311.597014925"/>
      <point x="969" y="481" type="qcurve" smooth="yes"/>
      <point x="969.0" y="581.746268657"/>
      <point x="825.940298507" y="721.0"/>
      <point x="664" y="721" type="qcurve" smooth="yes"/>
      <point x="389" y="721" type="line"/>
      <point x="244" y="139" type="line"/>
    </contour>
    <contour>
      <point x="696" y="850" type="line" smooth="yes"/>
      <point x="866.149253731" y="850.0"/>
      <point x="1075.0" y="1012.64179104"/>
      <point x="1075" y="1141" type="qcurve" smooth="yes"/>
      <point x="1075.0" y="1232.79104478"/>
      <point x="944.343283582" y="1335.0"/>
      <point x="813" y="1335" type="qcurve" smooth="yes"/>
      <point x="541" y="1335" type="line"/>
      <point x="422" y="850" type="line"/>
    </contour>
  </outline>
</glyph>
<glyph name="C" format="1">
  <advance width="1191.936"/>
  <unicode hex="0043"/>
  <outline>
    <contour>
      <point x="825" y="1499" type="qcurve" smooth="yes"/>
      <point x="1037.68656716" y="1499.0"/>
      <point x="1235.95522388" y="1247.1641791"/>
      <point x="1227" y="1030" type="qcurve"/>
      <point x="1044" y="993" type="line"/>
      <point x="1049.2238806" y="1167.62686567"/>
      <point x="937.865671642" y="1352.0"/>
      <point x="811" y="1352" type="qcurve" smooth="yes"/>
      <point x="652.044776119" y="1352.0"/>
      <point x="417.701492537" y="1028.13432836"/>
      <point x="358" y="805" type="qcurve" smooth="yes"/>
      <point x="332.626865672" y="710.223880597"/>
      <point x="307.0" y="544.134328358"/>
      <point x="307" y="471" type="qcurve" smooth="yes"/>
      <point x="307" y="465" type="line" smooth="yes"/>
      <point x="307.0" y="320.970149254"/>
      <point x="429.149253731" y="123.0"/>
      <point x="559" y="123" type="qcurve" smooth="yes"/>
      <point x="676.910447761" y="123.0"/>
      <point x="849.611940299" y="294.044776119"/>
      <point x="922" y="453" type="qcurve"/>
      <point x="1087" y="397" type="line"/>
      <point x="992.970149254" y="191.029850746"/>
      <point x="729.567164179" y="-25.0"/>
      <point x="543" y="-25" type="qcurve" smooth="yes"/>
      <point x="342.253731343" y="-25.0"/>
      <point x="119.0" y="241.388059701"/>
      <point x="119" y="469" type="qcurve" smooth="yes"/>
      <point x="119" y="475" type="line" smooth="yes"/>
      <point x="119.0" y="540.671641791"/>
      <point x="136.835820896" y="683.134328358"/>
      <point x="154" y="760" type="qcurve" smooth="yes"/>
      <point x="224.149253731" y="1073.43283582"/>
      <point x="568.28358209" y="1499.0"/>
    </contour>
  </outline>
</glyph>
<glyph name="F" format="1">
  <advance width="1071.104"/>
  <unicode hex="0046"/>
  <outline>
    <contour>
      <point x="393" y="1475" type="line"/>
      <point x="1257" y="1475" type="line"/>
      <point x="1221" y="1325" type="line"/>
      <point x="545" y="1325" type="line"/>
      <point x="418" y="807" type="line"/>
      <point x="944" y="807" type="line"/>
      <point x="909" y="662" type="line"/>
      <point x="381" y="662" type="line"/>
      <point x="215" y="0" type="line"/>
      <point x="27" y="0" type="line"/>
    </contour>
  </outline>
</glyph>
<glyph name="G" format="1">
  <advance width="1271.808"/>
  <unicode hex="0047"/>
  <outline>
    <contour>
      <point x="829" y="1499" type="qcurve" smooth="yes"/>
      <point x="1029.74626866" y="1499.0"/>
      <point x="1219.32835821" y="1275.40298507"/>
      <point x="1235" y="1106" type="qcurve"/>
      <point x="1053" y="1063" type="line"/>
      <point x="1037.32835821" y="1195.8358209"/>
      <point x="934.402985075" y="1352.0"/>
      <point x="815" y="1352" type="qcurve" smooth="yes"/>
      <point x="653.059701493" y="1352.0"/>
      <point x="417.701492537" y="1028.13432836"/>
      <point x="358" y="805" type="qcurve" smooth="yes"/>
      <point x="332.626865672" y="710.223880597"/>
      <point x="307.0" y="542.641791045"/>
      <point x="307" y="471" type="qcurve" smooth="yes"/>
      <point x="307" y="467" type="line" smooth="yes"/>
      <point x="307.0" y="321.47761194"/>
      <point x="430.104477612" y="123.0"/>
      <point x="551" y="123" type="qcurve" smooth="yes"/>
      <point x="676.373134328" y="123.0"/>
      <point x="883.149253731" y="363.910447761"/>
      <point x="963" y="596" type="qcurve"/>
      <point x="653" y="596" type="line"/>
      <point x="678" y="690" type="line"/>
      <point x="1194" y="690" type="line"/>
      <point x="1020" y="0" type="line"/>
      <point x="928" y="0" type="line"/>
      <point x="1010" y="395" type="line"/>
      <point x="999" y="395" type="line"/>
      <point x="904.223880597" y="199.47761194"/>
      <point x="687.940298507" y="-25.0"/>
      <point x="526" y="-25" type="qcurve" smooth="yes"/>
      <point x="337.940298507" y="-25.0"/>
      <point x="119.0" y="241.388059701"/>
      <point x="119" y="469" type="qcurve" smooth="yes"/>
      <point x="119" y="475" type="line" smooth="yes"/>
      <point x="119.0" y="540.671641791"/>
      <point x="136.835820896" y="683.134328358"/>
      <point x="154" y="760" type="qcurve" smooth="yes"/>
      <point x="224.149253731" y="1073.43283582"/>
      <point x="569.298507463" y="1499.0"/>
    </contour>
  </outline>
</glyph>
<glyph name="H" format="1">
  <advance width="1286.144"/>
  <unicode hex="0048"/>
  <outline>
    <contour>
      <point x="1174" y="1475" type="line"/>
      <point x="1362" y="1475" type="line"/>
      <point x="995" y="0" type="line"/>
      <point x="805" y="0" type="line"/>
      <point x="977" y="690" type="line"/>
      <point x="389" y="690" type="line"/>
      <point x="215" y="0" type="line"/>
      <point x="27" y="0" type="line"/>
      <point x="393" y="1475" type="line"/>
      <point x="584" y="1475" type="line"/>
      <point x="428" y="850" type="line"/>
      <point x="1016" y="850" type="line"/>
    </contour>
  </outline>
</glyph>
<glyph name="J" format="1">
  <advance width="1015.808"/>
  <unicode hex="004A"/>
  <outline>
    <contour>
      <point x="911" y="1475" type="line"/>
      <point x="1100" y="1475" type="line"/>
      <point x="840" y="426" type="line" smooth="yes"/>
      <point x="784.776119403" y="201.373134328"/>
      <point x="541.044776119" y="-25.0"/>
      <point x="350" y="-25" type="qcurve" smooth="yes"/>
      <point x="189.552238806" y="-25.0"/>
      <point x="0.0" y="130.179104478"/>
      <point x="0" y="266" type="qcurve" smooth="yes"/>
      <point x="0.0" y="295.104477612"/>
      <point x="6.53731343284" y="355.925373134"/>
      <point x="14" y="391" type="qcurve"/>
      <point x="201" y="436" type="line"/>
      <point x="191.298507463" y="397.940298507"/>
      <point x="182.0" y="332.104477612"/>
      <point x="182" y="303" type="qcurve" smooth="yes"/>
      <point x="182.0" y="214.194029851"/>
      <point x="275.208955224" y="127.0"/>
      <point x="367" y="127" type="qcurve" smooth="yes"/>
      <point x="469.23880597" y="127.0"/>
      <point x="613.447761194" y="281.552238806"/>
      <point x="653" y="442" type="qcurve" smooth="yes"/>
    </contour>
  </outline>
</glyph>
<glyph name="M" format="1">
  <advance width="1718.272"/>
  <unicode hex="004D"/>
  <outline>
    <contour>
      <point x="1481" y="1475" type="line"/>
      <point x="1792" y="1475" type="line"/>
      <point x="1425" y="0" type="line"/>
      <point x="1245" y="0" type="line"/>
      <point x="1567" y="1286" type="line"/>
      <point x="1548" y="1286" type="line"/>
      <point x="823" y="0" type="line"/>
      <point x="621" y="0" type="line"/>
      <point x="537" y="1286" type="line"/>
      <point x="518" y="1286" type="line"/>
      <point x="199" y="0" type="line"/>
      <point x="27" y="0" type="line"/>
      <point x="393" y="1475" type="line"/>
      <point x="696" y="1475" type="line"/>
      <point x="770" y="236" type="line"/>
      <point x="786" y="236" type="line"/>
    </contour>
  </outline>
</glyph>
<glyph name="S" format="1">
  <advance width="1159.168"/>
  <unicode hex="0053"/>
  <outline>
    <contour>
      <point x="735" y="1499" type="qcurve" smooth="yes"/>
      <point x="920.074626866" y="1499.0"/>
      <point x="1149.97014925" y="1331.28358209"/>
      <point x="1194" y="1188" type="qcurve"/>
      <point x="1044" y="1104" type="line"/>
      <point x="1005.94029851" y="1220.41791045"/>
      <point x="850.850746269" y="1354.0"/>
      <point x="721" y="1354" type="qcurve" smooth="yes"/>
      <point x="594.134328358" y="1354.0"/>
      <point x="453.0" y="1211.28358209"/>
      <point x="453" y="1118" type="qcurve" smooth="yes"/>
      <point x="453.0" y="1032.92537313"/>
      <point x="556.014925373" y="910.119402985"/>
      <point x="709" y="834" type="qcurve" smooth="yes"/>
      <point x="887.358208955" y="743.701492537"/>
      <point x="1036.0" y="556.805970149"/>
      <point x="1036" y="418" type="qcurve" smooth="yes"/>
      <point x="1036.0" y="215.76119403"/>
      <point x="744.970149254" y="-25.0"/>
      <point x="539" y="-25" type="qcurve" smooth="yes"/>
      <point x="326.313432836" y="-25.0"/>
      <point x="58.2985074627" y="165.582089552"/>
      <point x="18" y="332" type="qcurve"/>
      <point x="168" y="420" type="line"/>
      <point x="197.104477612" y="272.985074627"/>
      <point x="398.014925373" y="121.0"/>
      <point x="551" y="121" type="qcurve" smooth="yes"/>
      <point x="692.791044776" y="121.0"/>
      <point x="854.0" y="283.805970149"/>
      <point x="854" y="395" type="qcurve" smooth="yes"/>
      <point x="854.0" y="482.313432836"/>
      <point x="752.985074627" y="611.880597015"/>
      <point x="600" y="688" type="qcurve" smooth="yes"/>
      <point x="430.597014925" y="772.328358209"/>
      <point x="268.0" y="951.970149254"/>
      <point x="268" y="1096" type="qcurve" smooth="yes"/>
      <point x="268.0" y="1269.88059701"/>
      <point x="536.492537313" y="1499.0"/>
    </contour>
  </outline>
</glyph>
<glyph name="T" format="1">
  <advance width="1155.072"/>
  <unicode hex="0054"/>
  <outline>
    <contour>
      <point x="274" y="1475" type="line"/>
      <point x="1350" y="1475" type="line"/>
      <point x="1311" y="1317" type="line"/>
      <point x="866" y="1317" type="line"/>
      <point x="541" y="0" type="line"/>
      <point x="350" y="0" type="line"/>
      <point x="678" y="1317" type="line"/>
      <point x="233" y="1317" type="line"/>
    </contour>
  </outline>
</glyph>
<glyph name="W" format="1">
  <advance width="1996.8"/>
  <unicode hex="0057"/>
  <outline>
    <contour>
      <point x="1935" y="1475" type="line"/>
      <point x="2132" y="1475" type="line"/>
      <point x="1376" y="-12" type="line"/>
      <point x="1165" y="-12" type="line"/>
      <point x="1163" y="1243" type="line"/>
      <point x="1147" y="1243" type="line"/>
      <point x="518" y="-12" type="line"/>
      <point x="307" y="-12" type="line"/>
      <point x="295" y="1475" type="line"/>
      <point x="481" y="1475" type="line"/>
      <point x="465" y="209" type="line"/>
      <point x="477" y="209" type="line"/>
      <point x="1096" y="1475" type="line"/>
      <point x="1319" y="1475" type="line"/>
      <point x="1313" y="209" type="line"/>
      <point x="1325" y="209" type="line"/>
    </contour>
  </outline>
</glyph>
<glyph name="X" format="1">
  <advance width="1277.952"/>
  <unicode hex="0058"/>
  <outline>
    <contour>
      <point x="1227" y="1475" type="line"/>
      <point x="1430" y="1475" type="line"/>
      <point x="795" y="758" type="line"/>
      <point x="1092" y="0" type="line"/>
      <point x="889" y="0" type="line"/>
      <point x="657" y="614" type="line"/>
      <point x="123" y="0" type="line"/>
      <point x="-80" y="0" type="line"/>
      <point x="598" y="762" type="line"/>
      <point x="319" y="1475" type="line"/>
      <point x="520" y="1475" type="line"/>
      <point x="733" y="905" type="line"/>
    </contour>
  </outline>
</glyph>
<glyph name="Y" format="1">
  <advance width="1265.664"/>
  <unicode hex="0059"/>
  <outline>
    <contour>
      <point x="1276" y="1475" type="line"/>
      <point x="1470" y="1475" type="line"/>
      <point x="739" y="571" type="line"/>
      <point x="596" y="0" type="line"/>
      <point x="408" y="0" type="line"/>
      <point x="549" y="569" type="line"/>
      <point x="266" y="1475" type="line"/>
      <point x="467" y="1475" type="line"/>
      <point x="686" y="733" type="line"/>
    </contour>
  </outline>
</glyph>
<glyph name="bracketleft" format="1">
  <advance width="718.848"/>
  <unicode hex="005B"/>
  <outline>
    <contour>
      <point x="375" y="1491" type="line"/>
      <point x="905" y="1475" type="line"/>
      <point x="881" y="1384" type="line"/>
      <point x="520" y="1399" type="line"/>
      <point x="154" y="-88" type="line"/>
      <point x="516" y="-74" type="line"/>
      <point x="496" y="-164" type="line"/>
      <point x="-41" y="-180" type="line"/>
    </contour>
  </outline>
</glyph>
<glyph name="backslash" format="1">
  <advance width="804.864"/>
  <unicode hex="005C"/>
  <outline>
    <contour>
      <point x="430" y="1505" type="line"/>
      <point x="653" y="-195" type="line"/>
      <point x="496" y="-195" type="line"/>
      <point x="272" y="1505" type="line"/>
    </contour>
  </outline>
</glyph>
<glyph name="grave" format="1">
  <advance width="1024.0"/>
  <unicode hex="0060"/>
  <outline>
    <contour>
      <point x="737" y="1522" type="line"/>
      <point x="852" y="1212" type="line"/>
      <point x="743" y="1212" type="line"/>
      <point x="524" y="1522" type="line"/>
    </contour>
  </outline>
</glyph>
<glyph name="b" format="1">
  <advance width="1058.816"/>
  <unicode hex="0062"/>
  <outline>
    <contour>
      <point x="1001" y="762" type="qcurve" smooth="yes"/>
      <point x="1001" y="758" type="line" smooth="yes"/>
      <point x="1001.0" y="443.074626866"/>
      <point x="694.626865672" y="-20.0"/>
      <point x="520" y="-20" type="qcurve" smooth="yes"/>
      <point x="419.253731343" y="-20.0"/>
      <point x="303.701492537" y="97.1194029851"/>
      <point x="244" y="221" type="qcurve"/>
      <point x="231" y="221" type="line"/>
      <point x="174" y="-18" type="line"/>
      <point x="8" y="27" type="line"/>
      <point x="377" y="1509" type="line"/>
      <point x="565" y="1556" type="line"/>
      <point x="377" y="803" type="line"/>
      <point x="387" y="803" type="line"/>
      <point x="507.895522388" y="958.970149254"/>
      <point x="681.671641791" y="1083.0"/>
      <point x="766" y="1083" type="qcurve" smooth="yes"/>
      <point x="886.895522388" y="1083.0"/>
      <point x="1001.0" y="897.820895522"/>
    </contour>
    <contour>
      <point x="471" y="98" type="qcurve" smooth="yes"/>
      <point x="600.850746269" y="98.0"/>
      <point x="823.0" y="495.895522388"/>
      <point x="823" y="725" type="qcurve" smooth="yes"/>
      <point x="823.0" y="825.746268657"/>
      <point x="761.820895522" y="958.0"/>
      <point x="676" y="958" type="qcurve" smooth="yes"/>
      <point x="550.626865672" y="958.0"/>
      <point x="279.0" y="517.358208955"/>
      <point x="279" y="389" type="qcurve" smooth="yes"/>
      <point x="279.0" y="276.313432836"/>
      <point x="389.656716418" y="98.0"/>
    </contour>
  </outline>
</glyph>
<glyph name="d" format="1">
  <advance width="1058.816"/>
  <unicode hex="0064"/>
  <outline>
    <contour>
      <point x="993" y="1509" type="line"/>
      <point x="1182" y="1556" type="line"/>
      <point x="801" y="27" type="line"/>
      <point x="614" y="-18" type="line"/>
      <point x="682" y="264" type="line"/>
      <point x="672" y="264" type="line"/>
      <point x="551.104477612" y="108.029850746"/>
      <point x="378.820895522" y="-20.0"/>
      <point x="293" y="-20" type="qcurve" smooth="yes"/>
      <point x="172.104477612" y="-20.0"/>
      <point x="59.0" y="167.686567164"/>
      <point x="59" y="305" type="qcurve" smooth="yes"/>
      <point x="59" y="309" type="line" smooth="yes"/>
      <point x="59.0" y="623.925373134"/>
      <point x="364.880597015" y="1083.0"/>
      <point x="541" y="1083" type="qcurve" smooth="yes"/>
      <point x="641.746268657" y="1083.0"/>
      <point x="755.805970149" y="968.388059701"/>
      <point x="817" y="846" type="qcurve"/>
      <point x="829" y="846" type="line"/>
    </contour>
    <contour>
      <point x="385" y="106" type="qcurve" smooth="yes"/>
      <point x="508.880597015" y="106.0"/>
      <point x="782.0" y="549.641791045"/>
      <point x="782" y="678" type="qcurve" smooth="yes"/>
      <point x="782.0" y="789.194029851"/>
      <point x="670.089552239" y="969.0"/>
      <point x="588" y="969" type="qcurve" smooth="yes"/>
      <point x="459.641791045" y="969.0"/>
      <point x="236.0" y="569.104477612"/>
      <point x="236" y="340" type="qcurve" smooth="yes"/>
      <point x="236.0" y="240.746268657"/>
      <point x="297.686567164" y="106.0"/>
    </contour>
  </outline>
</glyph>
<glyph name="e" format="1">
  <advance width="950.272"/>
  <unicode hex="0065"/>
  <outline>
    <contour>
      <point x="596" y="1085" type="qcurve" smooth="yes"/>
      <point x="763.910447761" y="1085.0"/>
      <point x="901.0" y="873.567164179"/>
      <point x="901" y="737" type="qcurve" smooth="yes"/>
      <point x="901.0" y="682.52238806"/>
      <point x="881.164179104" y="555.462686567"/>
      <point x="864" y="498" type="qcurve"/>
      <point x="238" y="498" type="line"/>
      <point x="232.776119403" y="465.910447761"/>
      <point x="227.0" y="398.582089552"/>
      <point x="227" y="365" type="qcurve" smooth="yes"/>
      <point x="227" y="360" type="line" smooth="yes"/>
      <point x="227.0" y="238.358208955"/>
      <point x="336.23880597" y="106.0"/>
      <point x="434" y="106" type="qcurve" smooth="yes"/>
      <point x="509.373134328" y="106.0"/>
      <point x="651.895522388" y="169.507462687"/>
      <point x="731" y="221" type="qcurve"/>
      <point x="768" y="109" type="line"/>
      <point x="682.179104478" y="49.2985074627"/>
      <point x="514.208955224" y="-20.0"/>
      <point x="406" y="-20" type="qcurve" smooth="yes"/>
      <point x="243.313432836" y="-20.0"/>
      <point x="61.0" y="176.119402985"/>
      <point x="61" y="350" type="qcurve" smooth="yes"/>
      <point x="61" y="354" type="line" smooth="yes"/>
      <point x="61.0" y="407.731343284"/>
      <point x="78.5671641791" y="525.28358209"/>
      <point x="92" y="582" type="qcurve" smooth="yes"/>
      <point x="148.71641791" y="806.626865672"/>
      <point x="419.880597015" y="1085.0"/>
    </contour>
    <contour>
      <point x="721" y="588" type="line"/>
      <point x="729.955223881" y="632.029850746"/>
      <point x="739.0" y="707.417910448"/>
      <point x="739" y="741" type="qcurve" smooth="yes"/>
      <point x="739.0" y="837.268656716"/>
      <point x="674.805970149" y="975.0"/>
      <point x="586" y="975" type="qcurve" smooth="yes"/>
      <point x="481.52238806" y="975.0"/>
      <point x="297.552238806" y="752.925373134"/>
      <point x="258" y="588" type="qcurve"/>
    </contour>
  </outline>
</glyph>
<glyph name="f" format="1">
  <advance width="694.272"/>
  <unicode hex="0066"/>
  <outline>
    <contour>
      <point x="760" y="1554" type="qcurve" smooth="yes"/>
      <point x="825.671641791" y="1554.0"/>
      <point x="931.955223881" y="1530.1641791"/>
      <point x="973" y="1513" type="qcurve"/>
      <point x="938" y="1384" type="line"/>
      <point x="907.402985075" y="1401.1641791"/>
      <point x="824.71641791" y="1430.0"/>
      <point x="768" y="1430" type="qcurve" smooth="yes"/>
      <point x="703.820895522" y="1430.0"/>
      <point x="615.134328358" y="1351.04477612"/>
      <point x="592" y="1260" type="qcurve" smooth="yes"/>
      <point x="541" y="1057" type="line"/>
      <point x="805" y="1057" type="line"/>
      <point x="772" y="934" type="line"/>
      <point x="510" y="934" type="line"/>
      <point x="184" y="-385" type="line"/>
      <point x="8" y="-385" type="line"/>
      <point x="338" y="934" type="line"/>
      <point x="131" y="934" type="line"/>
      <point x="162" y="1057" type="line"/>
      <point x="369" y="1057" type="line"/>
      <point x="422" y="1276" type="line" smooth="yes"/>
      <point x="458.567164179" y="1424.50746269"/>
      <point x="624.179104478" y="1554.0"/>
    </contour>
  </outline>
</glyph>
<glyph name="g" format="1">
  <advance width="1058.816"/>
  <unicode hex="0067"/>
  <outline>
    <contour>
      <point x="887" y="1083" type="line"/>
      <point x="1053" y="1036" type="line"/>
      <point x="817" y="96" type="line" smooth="yes"/>
      <point x="752.820895522" y="-162.208955224"/>
      <point x="498.298507463" y="-389.0"/>
      <point x="258" y="-389" type="qcurve" smooth="yes"/>
      <point x="166.208955224" y="-389.0"/>
      <point x="18.7313432836" y="-359.641791045"/>
      <point x="-35" y="-338" type="qcurve"/>
      <point x="0" y="-203" type="line"/>
      <point x="49" y="-203" type="line"/>
      <point x="70.6417910448" y="-233.597014925"/>
      <point x="174.746268657" y="-287.0"/>
      <point x="274" y="-287" type="qcurve" smooth="yes"/>
      <point x="416.537313433" y="-287.0"/>
      <point x="587.208955224" y="-116.910447761"/>
      <point x="629" y="51" type="qcurve" smooth="yes"/>
      <point x="682" y="264" type="line"/>
      <point x="672" y="264" type="line"/>
      <point x="551.104477612" y="108.029850746"/>
      <point x="378.820895522" y="-20.0"/>
      <point x="293" y="-20" type="qcurve" smooth="yes"/>
      <point x="172.104477612" y="-20.0"/>
      <point x="59.0" y="167.686567164"/>
      <point x="59" y="305" type="qcurve" smooth="yes"/>
      <point x="59" y="309" type="line" smooth="yes"/>
      <point x="59.0" y="623.925373134"/>
      <point x="364.880597015" y="1083.0"/>
      <point x="541" y="1083" type="qcurve" smooth="yes"/>
      <point x="641.746268657" y="1083.0"/>
      <point x="755.805970149" y="968.388059701"/>
      <point x="817" y="846" type="qcurve"/>
      <point x="829" y="846" type="line"/>
    </contour>
    <contour>
      <point x="385" y="106" type="qcurve" smooth="yes"/>
      <point x="508.880597015" y="106.0"/>
      <point x="782.0" y="549.641791045"/>
      <point x="782" y="678" type="qcurve" smooth="yes"/>
      <point x="782.0" y="789.194029851"/>
      <point x="670.089552239" y="969.0"/>
      <point x="588" y="969" type="qcurve" smooth="yes"/>
      <point x="459.641791045" y="969.0"/>
      <point x="236.0" y="569.104477612"/>
      <point x="236" y="340" type="qcurve" smooth="yes"/>
      <point x="236.0" y="240.746268657"/>
      <point x="297.686567164" y="106.0"/>
    </contour>
  </outline>
</glyph>
<glyph name="i" format="1">
  <advance width="477.184"/>
  <unicode hex="0069"/>
  <outline>
    <contour>
      <point x="283" y="1065" type="line"/>
      <point x="461" y="1065" type="line"/>
      <point x="195" y="0" type="line"/>
      <point x="16" y="0" type="line"/>
    </contour>
    <contour>
      <point x="373" y="1481" type="line"/>
      <point x="578" y="1481" type="line"/>
      <point x="530" y="1292" type="line"/>
      <point x="326" y="1292" type="line"/>
    </contour>
  </outline>
</glyph>
<glyph name="j" format="1">
  <advance width="477.184"/>
  <unicode hex="006A"/>
  <outline>
    <contour>
      <point x="283" y="1065" type="line"/>
      <point x="461" y="1065" type="line"/>
      <point x="158" y="-150" type="line" smooth="yes"/>
      <point x="124.417910448" y="-287.313432836"/>
      <point x="-33.2985074627" y="-389.0"/>
      <point x="-143" y="-389" type="qcurve" smooth="yes"/>
      <point x="-193.746268657" y="-389.0"/>
      <point x="-276.432835821" y="-372.179104478"/>
      <point x="-313" y="-358" type="qcurve"/>
      <point x="-283" y="-240" type="line"/>
      <point x="-255.388059701" y="-253.432835821"/>
      <point x="-198.597014925" y="-268.0"/>
      <point x="-168" y="-268" type="qcurve" smooth="yes"/>
      <point x="-105.313432836" y="-268.0"/>
      <point x="-32.6567164179" y="-200.134328358"/>
      <point x="-14" y="-127" type="qcurve" smooth="yes"/>
    </contour>
    <contour>
      <point x="373" y="1481" type="line"/>
      <point x="578" y="1481" type="line"/>
      <point x="530" y="1292" type="line"/>
      <point x="326" y="1292" type="line"/>
    </contour>
  </outline>
</glyph>
<glyph name="k" format="1">
  <advance width="972.8"/>
  <unicode hex="006B"/>
  <outline>
    <contour>
      <point x="874" y="1065" type="line"/>
      <point x="1077" y="1065" type="line"/>
      <point x="530" y="539" type="line"/>
      <point x="827" y="0" type="line"/>
      <point x="635" y="0" type="line"/>
      <point x="350" y="541" type="line"/>
      <point x="350" y="551" type="line"/>
    </contour>
    <contour>
      <point x="377" y="1509" type="line"/>
      <point x="565" y="1556" type="line"/>
      <point x="178" y="0" type="line"/>
      <point x="0" y="0" type="line"/>
    </contour>
  </outline>
</glyph>
<glyph name="o" format="1">
  <advance width="1009.664"/>
  <unicode hex="006F"/>
  <outline>
    <contour>
      <point x="948" y="715" type="qcurve" smooth="yes"/>
      <point x="948" y="711" type="line" smooth="yes"/>
      <point x="948.0" y="661.746268657"/>
      <point x="935.432835821" y="548.47761194"/>
      <point x="922" y="494" type="qcurve" smooth="yes"/>
      <point x="869.76119403" y="279.820895522"/>
      <point x="603.746268657" y="-20.0"/>
      <point x="403" y="-20" type="qcurve" smooth="yes"/>
      <point x="250.76119403" y="-20.0"/>
      <point x="61.0" y="167.910447761"/>
      <point x="61" y="350" type="qcurve" smooth="yes"/>
      <point x="61" y="354" type="line" smooth="yes"/>
      <point x="61.0" y="403.253731343"/>
      <point x="76.5671641791" y="516.52238806"/>
      <point x="90" y="571" type="qcurve" smooth="yes"/>
      <point x="142.23880597" y="785.179104478"/>
      <point x="407.492537313" y="1085.0"/>
      <point x="606" y="1085" type="qcurve" smooth="yes"/>
      <point x="760.47761194" y="1085.0"/>
      <point x="948.0" y="896.343283582"/>
    </contour>
    <contour>
      <point x="741" y="489" type="qcurve" smooth="yes"/>
      <point x="758.164179104" y="558.402985075"/>
      <point x="776.0" y="674.76119403"/>
      <point x="776" y="727" type="qcurve" smooth="yes"/>
      <point x="776" y="731" type="line" smooth="yes"/>
      <point x="776.0" y="853.388059701"/>
      <point x="680.835820896" y="971.0"/>
      <point x="598" y="971" type="qcurve" smooth="yes"/>
      <point x="478.597014925" y="971.0"/>
      <point x="313.28358209" y="742.164179104"/>
      <point x="270" y="575" type="qcurve" smooth="yes"/>
      <point x="253.582089552" y="507.835820896"/>
      <point x="236.0" y="392.23880597"/>
      <point x="236" y="340" type="qcurve" smooth="yes"/>
      <point x="236" y="336" type="line" smooth="yes"/>
      <point x="236.0" y="213.611940299"/>
      <point x="330.656716418" y="94.0"/>
      <point x="412" y="94" type="qcurve" smooth="yes"/>
      <point x="532.149253731" y="94.0"/>
      <point x="699.955223881" y="324.074626866"/>
    </contour>
  </outline>
</glyph>
<glyph name="s" format="1">
  <advance width="847.872"/>
  <unicode hex="0073"/>
  <outline>
    <contour>
      <point x="508" y="1085" type="qcurve" smooth="yes"/>
      <point x="617.701492537" y="1085.0"/>
      <point x="785.820895522" y="1005.1641791"/>
      <point x="850" y="938" type="qcurve"/>
      <point x="743" y="844" type="line"/>
      <point x="688.52238806" y="906.686567164"/>
      <point x="563.671641791" y="971.0"/>
      <point x="498" y="971" type="qcurve" smooth="yes"/>
      <point x="413.671641791" y="971.0"/>
      <point x="311.0" y="876.641791045"/>
      <point x="311" y="805" type="qcurve" smooth="yes"/>
      <point x="311.0" y="745.298507463"/>
      <point x="383.776119403" y="659.76119403"/>
      <point x="489" y="612" type="qcurve" smooth="yes"/>
      <point x="621.089552239" y="552.298507463"/>
      <point x="735.0" y="412.253731343"/>
      <point x="735" y="313" type="qcurve" smooth="yes"/>
      <point x="735.0" y="166.731343284"/>
      <point x="519.432835821" y="-18.0"/>
      <point x="356" y="-18" type="qcurve" smooth="yes"/>
      <point x="226.149253731" y="-18.0"/>
      <point x="37.1492537313" y="70.3731343284"/>
      <point x="-33" y="145" type="qcurve"/>
      <point x="68" y="244" type="line"/>
      <point x="126.955223881" y="175.343283582"/>
      <point x="276.701492537" y="94.0"/>
      <point x="367" y="94" type="qcurve" smooth="yes"/>
      <point x="461.776119403" y="94.0"/>
      <point x="573.0" y="201.656716418"/>
      <point x="573" y="283" type="qcurve" smooth="yes"/>
      <point x="573.0" y="348.671641791"/>
      <point x="497.447761194" y="428.52238806"/>
      <point x="387" y="483" type="qcurve" smooth="yes"/>
      <point x="269.089552239" y="541.208955224"/>
      <point x="152.0" y="677.253731343"/>
      <point x="152" y="778" type="qcurve" smooth="yes"/>
      <point x="152.0" y="906.358208955"/>
      <point x="349.044776119" y="1085.0"/>
    </contour>
  </outline>
</glyph>
<glyph name="t" format="1">
  <advance width="755.712"/>
  <unicode hex="0074"/>
  <outline>
    <contour>
      <point x="524" y="1057" type="line"/>
      <point x="793" y="1057" type="line"/>
      <point x="762" y="934" type="line"/>
      <point x="494" y="934" type="line"/>
      <point x="334" y="293" type="line" smooth="yes"/>
      <point x="329.52238806" y="271.358208955"/>
      <point x="322.0" y="227.417910448"/>
      <point x="322" y="211" type="qcurve" smooth="yes"/>
      <point x="322.0" y="165.47761194"/>
      <point x="379.253731343" y="117.0"/>
      <point x="430" y="117" type="qcurve" smooth="yes"/>
      <point x="471.044776119" y="117.0"/>
      <point x="562.313432836" y="145.402985075"/>
      <point x="625" y="176" type="qcurve"/>
      <point x="588" y="31" type="line"/>
      <point x="523.820895522" y="4.88059701493"/>
      <point x="412.686567164" y="-20.0"/>
      <point x="350" y="-20" type="qcurve" smooth="yes"/>
      <point x="249.253731343" y="-20.0"/>
      <point x="139.0" y="75.671641791"/>
      <point x="139" y="160" type="qcurve" smooth="yes"/>
      <point x="139.0" y="182.388059701"/>
      <point x="147.28358209" y="241.880597015"/>
      <point x="154" y="268" type="qcurve" smooth="yes"/>
      <point x="319" y="934" type="line"/>
      <point x="129" y="934" type="line"/>
      <point x="160" y="1057" type="line"/>
      <point x="350" y="1057" type="line"/>
      <point x="449" y="1452" type="line"/>
      <point x="633" y="1497" type="line"/>
    </contour>
  </outline>
</glyph>
<glyph name="u" format="1">
  <advance width="1026.048"/>
  <unicode hex="0075"/>
  <outline>
    <contour>
      <point x="848" y="1065" type="line"/>
      <point x="1024" y="1065" type="line"/>
      <point x="766" y="27" type="line"/>
      <point x="580" y="-18" type="line"/>
      <point x="651" y="270" type="line"/>
      <point x="639" y="270" type="line"/>
      <point x="527.059701493" y="134.179104478"/>
      <point x="343.731343284" y="-10.0"/>
      <point x="240" y="-10" type="qcurve" smooth="yes"/>
      <point x="145.223880597" y="-10.0"/>
      <point x="49.0" y="88.6865671642"/>
      <point x="49" y="176" type="qcurve" smooth="yes"/>
      <point x="49.0" y="202.119402985"/>
      <point x="58.2985074627" y="272.432835821"/>
      <point x="68" y="309" type="qcurve" smooth="yes"/>
      <point x="256" y="1065" type="line"/>
      <point x="434" y="1065" type="line"/>
      <point x="254" y="344" type="line" smooth="yes"/>
      <point x="248.029850746" y="316.388059701"/>
      <point x="238.0" y="258.388059701"/>
      <point x="238" y="236" type="qcurve" smooth="yes"/>
      <point x="238.0" y="183.76119403"/>
      <point x="291.28358209" y="123.0"/>
      <point x="348" y="123" type="qcurve" smooth="yes"/>
      <point x="410.686567164" y="123.0"/>
      <point x="573.28358209" y="250.701492537"/>
      <point x="680" y="391" type="qcurve"/>
    </contour>
  </outline>
</glyph>
<glyph name="v" format="1">
  <advance width="972.8"/>
  <unicode hex="0076"/>
  <outline>
    <contour>
      <point x="879" y="1065" type="line"/>
      <point x="1061" y="1065" type="line"/>
      <point x="446" y="-12" type="line"/>
      <point x="258" y="-12" type="line"/>
      <point x="180" y="1065" type="line"/>
      <point x="356" y="1065" type="line"/>
      <point x="393" y="172" type="line"/>
    </contour>
  </outline>
</glyph>
<glyph name="w" format="1">
  <advance width="1568.768"/>
  <unicode hex="0077"/>
  <outline>
    <contour>
      <point x="1470" y="1065" type="line"/>
      <point x="1651" y="1065" type="line"/>
      <point x="1061" y="-8" type="line"/>
      <point x="879" y="-8" type="line"/>
      <point x="864" y="848" type="line"/>
      <point x="420" y="-8" type="line"/>
      <point x="236" y="-8" type="line"/>
      <point x="184" y="1065" type="line"/>
      <point x="360" y="1065" type="line"/>
      <point x="377" y="184" type="line"/>
      <point x="829" y="1065" type="line"/>
      <point x="1001" y="1065" type="line"/>
      <point x="1014" y="184" type="line"/>
    </contour>
  </outline>
</glyph>
<glyph name="x" format="1">
  <advance width="983.04"/>
  <unicode hex="0078"/>
  <outline>
    <contour>
      <point x="862" y="1065" type="line"/>
      <point x="1049" y="1065" type="line"/>
      <point x="580" y="541" type="line"/>
      <point x="795" y="0" type="line"/>
      <point x="614" y="0" type="line"/>
      <point x="461" y="418" type="line"/>
      <point x="109" y="0" type="line"/>
      <point x="-80" y="0" type="line"/>
      <point x="406" y="543" type="line"/>
      <point x="197" y="1065" type="line"/>
      <point x="379" y="1065" type="line"/>
      <point x="524" y="666" type="line"/>
    </contour>
  </outline>
</glyph>
<glyph name="bar" format="1">
  <advance width="495.616"/>
  <unicode hex="007C"/>
  <outline>
    <contour>
      <point x="426" y="1561" type="line"/>
      <point x="578" y="1561" type="line"/>
      <point x="94" y="-385" type="line"/>
      <point x="-57" y="-385" type="line"/>
    </contour>
  </outline>
</glyph>
<glyph name="braceright" format="1">
  <advance width="813.056"/>
  <unicode hex="007D"/>
  <outline>
    <contour>
      <point x="586" y="848" type="qcurve" smooth="yes"/>
      <point x="586.0" y="779.343283582"/>
      <point x="697.567164179" y="700.0"/>
      <point x="811" y="700" type="qcurve"/>
      <point x="788" y="610" type="line"/>
      <point x="673.820895522" y="610.0"/>
      <point x="496.611940299" y="516.208955224"/>
      <point x="469" y="408" type="qcurve" smooth="yes"/>
      <point x="451.835820896" y="337.104477612"/>
      <point x="444.656716418" y="140.626865672"/>
      <point x="426" y="66" type="qcurve" smooth="yes"/>
      <point x="396.895522388" y="-50.4179104478"/>
      <point x="239.552238806" y="-164.0"/>
      <point x="100" y="-164" type="qcurve" smooth="yes"/>
      <point x="-109" y="-164" type="line"/>
      <point x="-86" y="-74" type="line"/>
      <point x="53" y="-74" type="line" smooth="yes"/>
      <point x="140.313432836" y="-74.0"/>
      <point x="239.343283582" y="-1.40298507463"/>
      <point x="258" y="68" type="qcurve" smooth="yes"/>
      <point x="276.656716418" y="142.626865672"/>
      <point x="276.850746269" y="315.895522388"/>
      <point x="297" y="395" type="qcurve" smooth="yes"/>
      <point x="326.104477612" y="514.402985075"/>
      <point x="468.28358209" y="618.402985075"/>
      <point x="575" y="649" type="qcurve"/>
      <point x="580" y="666" type="line"/>
      <point x="495.671641791" y="691.373134328"/>
      <point x="420.0" y="770.119402985"/>
      <point x="420" y="844" type="qcurve" smooth="yes"/>
      <point x="420.0" y="947.731343284"/>
      <point x="555.0" y="1193.19402985"/>
      <point x="555" y="1282" type="qcurve" smooth="yes"/>
      <point x="555.0" y="1329.76119403"/>
      <point x="486.656716418" y="1384.0"/>
      <point x="418" y="1384" type="qcurve" smooth="yes"/>
      <point x="276" y="1384" type="line"/>
      <point x="301" y="1475" type="line"/>
      <point x="496" y="1475" type="line" smooth="yes"/>
      <point x="610.179104478" y="1475.0"/>
      <point x="723.0" y="1388.07462687"/>
      <point x="723" y="1303" type="qcurve" smooth="yes"/>
      <point x="723.0" y="1185.08955224"/>
      <point x="586.0" y="944.268656716"/>
    </contour>
  </outline>
</glyph>
<glyph name="exclamdown" format="1">
  <advance width="514.048"/>
  <unicode hex="00A1"/>
  <outline>
    <contour>
      <point x="463" y="1489" type="qcurve" smooth="yes"/>
      <point x="511.507462687" y="1489.0"/>
      <point x="578.0" y="1422.74626866"/>
      <point x="578" y="1372" type="qcurve" smooth="yes"/>
      <point x="578.0" y="1322.0"/>
      <point x="511.507462687" y="1255.0"/>
      <point x="463" y="1255" type="qcurve" smooth="yes"/>
      <point x="412.253731343" y="1255.0"/>
      <point x="346.0" y="1322.0"/>
      <point x="346" y="1372" type="qcurve" smooth="yes"/>
      <point x="346.0" y="1422.74626866"/>
      <point x="412.253731343" y="1489.0"/>
    </contour>
    <contour>
      <point x="336" y="1036" type="line"/>
      <point x="432" y="1036" type="line"/>
      <point x="231" y="0" type="line"/>
      <point x="12" y="0" type="line"/>
    </contour>
  </outline>
</glyph>
<glyph name="sterling" format="1">
  <advance width="1187.84"/>
  <unicode hex="00A3"/>
  <outline>
    <contour>
      <point x="139" y="784" type="line"/>
      <point x="354" y="784" type="line"/>
      <point x="354" y="973" type="line" smooth="yes"/>
      <point x="354.0" y="1211.05970149"/>
      <point x="593.895522388" y="1497.0"/>
      <point x="823" y="1497" type="qcurve" smooth="yes"/>
      <point x="1009.56716418" y="1497.0"/>
      <point x="1207.28358209" y="1345.86567164"/>
      <point x="1264" y="1219" type="qcurve"/>
      <point x="1106" y="1149" type="line"/>
      <point x="1055.25373134" y="1252.73134328"/>
      <point x="927.925373134" y="1358.0"/>
      <point x="813" y="1358" type="qcurve" smooth="yes"/>
      <point x="671.208955224" y="1358.0"/>
      <point x="526.0" y="1156.91044776"/>
      <point x="526" y="989" type="qcurve" smooth="yes"/>
      <point x="526" y="784" type="line"/>
      <point x="913" y="784" type="line"/>
      <point x="887" y="680" type="line"/>
      <point x="526" y="680" type="line"/>
      <point x="526" y="666" type="line" smooth="yes"/>
      <point x="526.0" y="539.134328358"/>
      <point x="477.253731343" y="329.104477612"/>
      <point x="428" y="250" type="qcurve"/>
      <point x="489.194029851" y="193.28358209"/>
      <point x="609.850746269" y="135.0"/>
      <point x="680" y="135" type="qcurve" smooth="yes"/>
      <point x="767.313432836" y="135.0"/>
      <point x="895.313432836" y="241.656716418"/>
      <point x="958" y="373" type="qcurve"/>
      <point x="1083" y="326" type="line"/>
      <point x="1006.88059701" y="143.910447761"/>
      <point x="810.865671642" y="-12.0"/>
      <point x="684" y="-12" type="qcurve" smooth="yes"/>
      <point x="584.746268657" y="-12.0"/>
      <point x="424.328358209" y="69.3582089552"/>
      <point x="340" y="141" type="qcurve"/>
      <point x="272.835820896" y="79.8059701493"/>
      <point x="87.4179104478" y="2.92537313433"/>
      <point x="-29" y="-12" type="qcurve"/>
      <point x="6" y="125" type="line"/>
      <point x="175.402985075" y="167.537313433"/>
      <point x="354.0" y="408.850746269"/>
      <point x="354" y="629" type="qcurve" smooth="yes"/>
      <point x="354" y="680" type="line"/>
      <point x="113" y="680" type="line"/>
    </contour>
  </outline>
</glyph>
<glyph name="yen" format="1">
  <advance width="1263.616"/>
  <unicode hex="00A5"/>
  <outline>
    <contour>
      <point x="1262" y="1475" type="line"/>
      <point x="1458" y="1475" type="line"/>
      <point x="909" y="793" type="line"/>
      <point x="1192" y="793" type="line"/>
      <point x="1163" y="688" type="line"/>
      <point x="823" y="688" type="line"/>
      <point x="731" y="571" type="line"/>
      <point x="692" y="414" type="line"/>
      <point x="1096" y="414" type="line"/>
      <point x="1069" y="309" type="line"/>
      <point x="666" y="309" type="line"/>
      <point x="590" y="0" type="line"/>
      <point x="410" y="0" type="line"/>
      <point x="487" y="309" type="line"/>
      <point x="82" y="309" type="line"/>
      <point x="111" y="414" type="line"/>
      <point x="514" y="414" type="line"/>
      <point x="553" y="569" type="line"/>
      <point x="516" y="688" type="line"/>
      <point x="176" y="688" type="line"/>
      <point x="205" y="793" type="line"/>
      <point x="483" y="793" type="line"/>
      <point x="276" y="1475" type="line"/>
      <point x="467" y="1475" type="line"/>
      <point x="676" y="719" type="line"/>
    </contour>
  </outline>
</glyph>
<glyph name="section" format="1">
  <advance width="1198.08"/>
  <unicode hex="00A7"/>
  <outline>
    <contour>
      <point x="748" y="1499" type="qcurve" smooth="yes"/>
      <point x="886.805970149" y="1499.0"/>
      <point x="1128.73134328" y="1420.17910448"/>
      <point x="1225" y="1356" type="qcurve"/>
      <point x="1139" y="1235" type="line"/>
      <point x="1056.1641791" y="1293.20895522"/>
      <point x="842.492537313" y="1364.0"/>
      <point x="741" y="1364" type="qcurve" smooth="yes"/>
      <point x="641.746268657" y="1364.0"/>
      <point x="539.0" y="1295.68656716"/>
      <point x="539" y="1233" type="qcurve" smooth="yes"/>
      <point x="539.0" y="1177.7761194"/>
      <point x="655.567164179" y="1091.70149254"/>
      <point x="819" y="1032" type="qcurve" smooth="yes"/>
      <point x="1021.23880597" y="958.865671642"/>
      <point x="1178.0" y="817.805970149"/>
      <point x="1178" y="729" type="qcurve" smooth="yes"/>
      <point x="1178.0" y="612.582089552"/>
      <point x="961.074626866" y="459.537313433"/>
      <point x="776" y="467" type="qcurve"/>
      <point x="772" y="455" type="line"/>
      <point x="850.358208955" y="413.208955224"/>
      <point x="934.0" y="312.626865672"/>
      <point x="934" y="238" type="qcurve" smooth="yes"/>
      <point x="934.0" y="118.597014925"/>
      <point x="727.865671642" y="-25.0"/>
      <point x="551" y="-25" type="qcurve" smooth="yes"/>
      <point x="409.955223881" y="-25.0"/>
      <point x="170.268656716" y="54.8208955224"/>
      <point x="74" y="119" type="qcurve"/>
      <point x="160" y="240" type="line"/>
      <point x="242.089552239" y="181.791044776"/>
      <point x="456.253731343" y="111.0"/>
      <point x="557" y="111" type="qcurve" smooth="yes"/>
      <point x="656.253731343" y="111.0"/>
      <point x="762.0" y="179.313432836"/>
      <point x="762" y="242" type="qcurve" smooth="yes"/>
      <point x="762.0" y="296.47761194"/>
      <point x="641.925373134" y="382.298507463"/>
      <point x="477" y="442" type="qcurve" smooth="yes"/>
      <point x="277.0" y="515.880597015"/>
      <point x="121.0" y="656.940298507"/>
      <point x="121" y="745" type="qcurve" smooth="yes"/>
      <point x="121.0" y="861.417910448"/>
      <point x="336.925373134" y="1015.46268657"/>
      <point x="522" y="1008" type="qcurve"/>
      <point x="526" y="1020" type="line"/>
      <point x="448.388059701" y="1061.04477612"/>
      <point x="365.0" y="1162.37313433"/>
      <point x="365" y="1237" type="qcurve" smooth="yes"/>
      <point x="365.0" y="1356.40298507"/>
      <point x="570.388059701" y="1499.0"/>
    </contour>
    <contour>
      <point x="760" y="532" type="qcurve" smooth="yes"/>
      <point x="874.179104478" y="532.0"/>
      <point x="1012.0" y="624.358208955"/>
      <point x="1012" y="696" type="qcurve" smooth="yes"/>
      <point x="1012.0" y="742.268656716"/>
      <point x="926.373134328" y="836.76119403"/>
      <point x="801" y="889" type="qcurve" smooth="yes"/>
      <point x="747.268656716" y="910.641791045"/>
      <point x="601.179104478" y="942.0"/>
      <point x="537" y="942" type="qcurve" smooth="yes"/>
      <point x="423.567164179" y="942.0"/>
      <point x="287.0" y="849.641791045"/>
      <point x="287" y="778" type="qcurve" smooth="yes"/>
      <point x="287.0" y="732.47761194"/>
      <point x="374.119402985" y="637.492537313"/>
      <point x="498" y="586" type="qcurve" smooth="yes"/>
      <point x="550.985074627" y="564.358208955"/>
      <point x="695.820895522" y="532.0"/>
    </contour>
  </outline>
</glyph>
<glyph name="ordfeminine" format="1">
  <advance width="786.432"/>
  <unicode hex="00AA"/>
  <outline>
    <contour>
      <point x="598" y="1485" type="qcurve" smooth="yes"/>
      <point x="704.71641791" y="1485.0"/>
      <point x="813.0" y="1405.89552239"/>
      <point x="813" y="1335" type="qcurve" smooth="yes"/>
      <point x="813.0" y="1315.59701493"/>
      <point x="804.970149254" y="1267.11940299"/>
      <point x="799" y="1241" type="qcurve" smooth="yes"/>
      <point x="717" y="913" type="line" smooth="yes"/>
      <point x="715.507462687" y="904.044776119"/>
      <point x="711.0" y="884.462686567"/>
      <point x="711" y="877" type="qcurve" smooth="yes"/>
      <point x="711.0" y="855.358208955"/>
      <point x="740.417910448" y="829.47761194"/>
      <point x="774" y="825" type="qcurve"/>
      <point x="758" y="760" type="line"/>
      <point x="673.671641791" y="762.985074627"/>
      <point x="590.985074627" y="824.0"/>
      <point x="588" y="874" type="qcurve"/>
      <point x="522.328358209" y="812.059701493"/>
      <point x="406.686567164" y="756.0"/>
      <point x="344" y="756" type="qcurve" smooth="yes"/>
      <point x="272.358208955" y="756.0"/>
      <point x="180.0" y="838.373134328"/>
      <point x="180" y="913" type="qcurve" smooth="yes"/>
      <point x="180.0" y="1032.40298507"/>
      <point x="408.268656716" y="1187.01492537"/>
      <point x="662" y="1190" type="qcurve"/>
      <point x="676" y="1247" type="line" smooth="yes"/>
      <point x="680.47761194" y="1265.65671642"/>
      <point x="686.0" y="1296.31343284"/>
      <point x="686" y="1309" type="qcurve" smooth="yes"/>
      <point x="686.0" y="1350.04477612"/>
      <point x="625.208955224" y="1391.0"/>
      <point x="567" y="1391" type="qcurve" smooth="yes"/>
      <point x="517.0" y="1391.0"/>
      <point x="413.194029851" y="1362.10447761"/>
      <point x="352" y="1333" type="qcurve"/>
      <point x="328" y="1423" type="line"/>
      <point x="395.164179104" y="1453.59701493"/>
      <point x="526.358208955" y="1485.0"/>
    </contour>
    <contour>
      <point x="600" y="950" type="qcurve"/>
      <point x="645" y="1128" type="line"/>
      <point x="449.47761194" y="1125.01492537"/>
      <point x="303.0" y="1010.62686567"/>
      <point x="303" y="936" type="qcurve" smooth="yes"/>
      <point x="303.0" y="889.731343284"/>
      <point x="360.23880597" y="840.0"/>
      <point x="408" y="840" type="qcurve" smooth="yes"/>
      <point x="446.059701493" y="840.0"/>
      <point x="544.776119403" y="893.28358209"/>
    </contour>
    <contour>
      <point x="121" y="604" type="line"/>
      <point x="702" y="604" type="line"/>
      <point x="680" y="520" type="line"/>
      <point x="98" y="520" type="line"/>
    </contour>
  </outline>
</glyph>
<glyph name="guillemotleft" format="1">
  <advance width="958.464"/>
  <unicode hex="00AB"/>
  <outline>
    <contour>
      <point x="467" y="909" type="line"/>
      <point x="584" y="909" type="line"/>
      <point x="246" y="524" type="line"/>
      <point x="389" y="156" type="line"/>
      <point x="287" y="156" type="line"/>
      <point x="53" y="532" type="line"/>
    </contour>
    <contour>
      <point x="872" y="909" type="line"/>
      <point x="989" y="909" type="line"/>
      <point x="651" y="524" type="line"/>
      <point x="795" y="156" type="line"/>
      <point x="692" y="156" type="line"/>
      <point x="459" y="532" type="line"/>
    </contour>
  </outline>
</glyph>
<glyph name="degree" format="1">
  <advance width="819.2"/>
  <unicode hex="00B0"/>
  <outline>
    <contour>
      <point x="522" y="1483" type="qcurve" smooth="yes"/>
      <point x="651.850746269" y="1483.0"/>
      <point x="829.0" y="1311.34328358"/>
      <point x="829" y="1180" type="qcurve" smooth="yes"/>
      <point x="829.0" y="1046.41791045"/>
      <point x="651.850746269" y="874.0"/>
      <point x="522" y="874" type="qcurve" smooth="yes"/>
      <point x="389.164179104" y="874.0"/>
      <point x="213.0" y="1046.41791045"/>
      <point x="213" y="1180" type="qcurve" smooth="yes"/>
      <point x="213.0" y="1311.34328358"/>
      <point x="389.164179104" y="1483.0"/>
    </contour>
    <contour>
      <point x="522" y="967" type="qcurve" smooth="yes"/>
      <point x="609.313432836" y="967.0"/>
      <point x="723.0" y="1088.20895522"/>
      <point x="723" y="1180" type="qcurve" smooth="yes"/>
      <point x="723.0" y="1269.55223881"/>
      <point x="609.313432836" y="1389.0"/>
      <point x="522" y="1389" type="qcurve" smooth="yes"/>
      <point x="431.701492537" y="1389.0"/>
      <point x="319.0" y="1269.55223881"/>
      <point x="319" y="1180" type="qcurve" smooth="yes"/>
      <point x="319.0" y="1088.20895522"/>
      <point x="431.701492537" y="967.0"/>
    </contour>
  </outline>
</glyph>
<glyph name="acute" format="1">
  <advance width="1024.0"/>
  <unicode hex="00B4"/>
  <outline>
    <contour>
      <point x="745" y="1522" type="line"/>
      <point x="973" y="1522" type="line"/>
      <point x="621" y="1212" type="line"/>
      <point x="498" y="1212" type="line"/>
    </contour>
  </outline>
</glyph>
<glyph name="paragraph" format="1">
  <advance width="1093.632"/>
  <unicode hex="00B6"/>
  <outline>
    <contour>
      <point x="737" y="1475" type="qcurve" smooth="yes"/>
      <point x="1163" y="1475" type="line"/>
      <point x="797" y="0" type="line"/>
      <point x="692" y="0" type="line"/>
      <point x="1036" y="1380" type="line"/>
      <point x="838" y="1380" type="line"/>
      <point x="496" y="0" type="line"/>
      <point x="389" y="0" type="line"/>
      <point x="567" y="717" type="line"/>
      <point x="409.537313433" y="737.895522388"/>
      <point x="205.0" y="898.552238806"/>
      <point x="205" y="1059" type="qcurve" smooth="yes"/>
      <point x="205.0" y="1235.86567164"/>
      <point x="483.268656716" y="1475.0"/>
    </contour>
  </outline>
</glyph>
<glyph name="cedilla" format="1">
  <advance width="1024.0"/>
  <unicode hex="00B8"/>
  <outline>
    <contour>
      <point x="440" y="-104" type="qcurve" smooth="yes"/>
      <point x="502.686567164" y="-104.0"/>
      <point x="578.0" y="-160.253731343"/>
      <point x="578" y="-211" type="qcurve" smooth="yes"/>
      <point x="578.0" y="-296.820895522"/>
      <point x="388.23880597" y="-389.0"/>
      <point x="236" y="-389" type="qcurve" smooth="yes"/>
      <point x="197.194029851" y="-389.0"/>
      <point x="111.074626866" y="-385.47761194"/>
      <point x="76" y="-381" type="qcurve"/>
      <point x="90" y="-328" type="line"/>
      <point x="119.104477612" y="-330.985074627"/>
      <point x="178.880597015" y="-336.0"/>
      <point x="205" y="-336" type="qcurve" smooth="yes"/>
      <point x="324.402985075" y="-336.0"/>
      <point x="444.0" y="-284.029850746"/>
      <point x="444" y="-240" type="qcurve" smooth="yes"/>
      <point x="444.0" y="-213.880597015"/>
      <point x="403.567164179" y="-184.0"/>
      <point x="367" y="-184" type="qcurve" smooth="yes"/>
      <point x="339.388059701" y="-184.0"/>
      <point x="286.089552239" y="-194.313432836"/>
      <point x="254" y="-207" type="qcurve"/>
      <point x="211" y="-174" type="line"/>
      <point x="371" y="0" type="line"/>
      <point x="455" y="0" type="line"/>
      <point x="348" y="-117" type="line"/>
      <point x="369.641791045" y="-111.029850746"/>
      <point x="416.119402985" y="-104.0"/>
    </contour>
  </outline>
</glyph>
<glyph name="ordmasculine" format="1">
  <advance width="786.432"/>
  <unicode hex="00BA"/>
  <outline>
    <contour>
      <point x="573" y="1489" type="qcurve" smooth="yes"/>
      <point x="683.447761194" y="1489.0"/>
      <point x="825.0" y="1360.34328358"/>
      <point x="825" y="1229" type="qcurve" smooth="yes"/>
      <point x="825.0" y="1058.85074627"/>
      <point x="631.388059701" y="752.0"/>
      <point x="459" y="752" type="qcurve" smooth="yes"/>
      <point x="350.044776119" y="752.0"/>
      <point x="207.0" y="880.149253731"/>
      <point x="207" y="1010" type="qcurve" smooth="yes"/>
      <point x="207.0" y="1180.89552239"/>
      <point x="402.104477612" y="1489.0"/>
    </contour>
    <contour>
      <point x="461" y="838" type="qcurve" smooth="yes"/>
      <point x="573.686567164" y="838.0"/>
      <point x="698.0" y="1110.13432836"/>
      <point x="698" y="1237" type="qcurve" smooth="yes"/>
      <point x="698.0" y="1321.32835821"/>
      <point x="629.208955224" y="1401.0"/>
      <point x="571" y="1401" type="qcurve" smooth="yes"/>
      <point x="459.805970149" y="1401.0"/>
      <point x="334.0" y="1130.86567164"/>
      <point x="334" y="1004" type="qcurve" smooth="yes"/>
      <point x="334.0" y="918.179104478"/>
      <point x="404.28358209" y="838.0"/>
    </contour>
    <contour>
      <point x="129" y="604" type="line"/>
      <point x="692" y="604" type="line"/>
      <point x="672" y="520" type="line"/>
      <point x="109" y="520" type="line"/>
    </contour>
  </outline>
</glyph>
<glyph name="AE" format="1">
  <advance width="1894.4"/>
  <unicode hex="00C6"/>
  <outline>
    <contour>
      <point x="1012" y="1475" type="line"/>
      <point x="2030" y="1475" type="line"/>
      <point x="1991" y="1325" type="line"/>
      <point x="1327" y="1325" type="line"/>
      <point x="1206" y="840" type="line"/>
      <point x="1743" y="840" type="line"/>
      <point x="1708" y="698" type="line"/>
      <point x="1171" y="698" type="line"/>
      <point x="1034" y="150" type="line"/>
      <point x="1724" y="150" type="line"/>
      <point x="1686" y="0" type="line"/>
      <point x="813" y="0" type="line"/>
      <point x="909" y="379" type="line"/>
      <point x="377" y="379" type="line"/>
      <point x="90" y="0" type="line"/>
      <point x="-113" y="0" type="line"/>
    </contour>
    <contour>
      <point x="940" y="510" type="line"/>
      <point x="1147" y="1329" type="line"/>
      <point x="1092" y="1329" type="line"/>
      <point x="467" y="510" type="line"/>
    </contour>
  </outline>
</glyph>
<glyph name="Eth" format="1">
  <advance width="1347.584"/>
  <unicode hex="00D0"/>
  <outline>
    <contour>
      <point x="1327" y="958" type="qcurve" smooth="yes"/>
      <point x="1327" y="952" type="line" smooth="yes"/>
      <point x="1327.0" y="887.820895522"/>
      <point x="1313.67164179" y="770.671641791"/>
      <point x="1298" y="705" type="qcurve" smooth="yes"/>
      <point x="1220.3880597" y="365.447761194"/>
      <point x="784.492537313" y="0.0"/>
      <point x="483" y="0" type="qcurve" smooth="yes"/>
      <point x="100" y="0" type="line"/>
      <point x="274" y="694" type="line"/>
      <point x="94" y="694" type="line"/>
      <point x="131" y="844" type="line"/>
      <point x="311" y="844" type="line"/>
      <point x="467" y="1475" type="line"/>
      <point x="782" y="1475" type="line" smooth="yes"/>
      <point x="1025.28358209" y="1475.0"/>
      <point x="1327.0" y="1221.43283582"/>
    </contour>
    <contour>
      <point x="1100" y="686" type="qcurve" smooth="yes"/>
      <point x="1114.92537313" y="744.208955224"/>
      <point x="1133.0" y="879.313432836"/>
      <point x="1133" y="942" type="qcurve" smooth="yes"/>
      <point x="1133" y="948" type="line" smooth="yes"/>
      <point x="1133.0" y="1136.05970149"/>
      <point x="926.417910448" y="1327.0"/>
      <point x="760" y="1327" type="qcurve" smooth="yes"/>
      <point x="612" y="1327" type="line"/>
      <point x="492" y="844" type="line"/>
      <point x="762" y="844" type="line"/>
      <point x="725" y="694" type="line"/>
      <point x="455" y="694" type="line"/>
      <point x="317" y="147" type="line"/>
      <point x="496" y="147" type="line" smooth="yes"/>
      <point x="704.955223881" y="147.0"/>
      <point x="1031.34328358" y="424.805970149"/>
    </contour>
  </outline>
</glyph>
<glyph name="multiply" format="1">
  <advance width="1228.8"/>
  <unicode hex="00D7"/>
  <outline>
    <contour>
      <point x="766" y="727" type="line"/>
      <point x="1145" y="354" type="line"/>
      <point x="1036" y="246" type="line"/>
      <point x="664" y="625" type="line"/>
      <point x="291" y="246" type="line"/>
      <point x="182" y="354" type="line"/>
      <point x="561" y="727" type="line"/>
      <point x="182" y="1100" type="line"/>
      <point x="291" y="1208" type="line"/>
      <point x="664" y="829" type="line"/>
      <point x="1036" y="1208" type="line"/>
      <point x="1145" y="1100" type="line"/>
    </contour>
  </outline>
</glyph>
<glyph name="Oslash" format="1">
  <advance width="1269.76"/>
  <unicode hex="00D8"/>
  <outline>
    <contour>
      <point x="1323" y="1673" type="line"/>
      <point x="1446" y="1673" type="line"/>
      <point x="1176" y="1317" type="line"/>
      <point x="1214.05970149" y="1257.29850746"/>
      <point x="1253.0" y="1098.53731343"/>
      <point x="1253" y="1006" type="qcurve" smooth="yes"/>
      <point x="1253" y="999" type="line" smooth="yes"/>
      <point x="1253.0" y="928.850746269"/>
      <point x="1233.41791045" y="774.358208955"/>
      <point x="1217" y="696" type="qcurve" smooth="yes"/>
      <point x="1147.59701493" y="392.268656716"/>
      <point x="803.71641791" y="-25.0"/>
      <point x="547" y="-25" type="qcurve" smooth="yes"/>
      <point x="456.701492537" y="-25.0"/>
      <point x="309.731343284" y="31.7611940299"/>
      <point x="256" y="84" type="qcurve"/>
      <point x="49" y="-195" type="line"/>
      <point x="-74" y="-195" type="line"/>
      <point x="195" y="158" type="line"/>
      <point x="157.686567164" y="217.701492537"/>
      <point x="119.0" y="374.223880597"/>
      <point x="119" y="469" type="qcurve" smooth="yes"/>
      <point x="119" y="475" type="line" smooth="yes"/>
      <point x="119.0" y="545.149253731"/>
      <point x="138.835820896" y="700.388059701"/>
      <point x="156" y="778" type="qcurve" smooth="yes"/>
      <point x="224.656716418" y="1082.47761194"/>
      <point x="568.28358209" y="1499.0"/>
      <point x="825" y="1499" type="qcurve" smooth="yes"/>
      <point x="915.298507463" y="1499.0"/>
      <point x="1062.26865672" y="1442.49253731"/>
      <point x="1116" y="1391" type="qcurve"/>
    </contour>
    <contour>
      <point x="315" y="307" type="qcurve"/>
      <point x="1016" y="1253" type="line"/>
      <point x="983.910447761" y="1302.25373134"/>
      <point x="881.656716418" y="1358.0"/>
      <point x="813" y="1358" type="qcurve" smooth="yes"/>
      <point x="652.552238806" y="1358.0"/>
      <point x="411.194029851" y="1047.11940299"/>
      <point x="350" y="821" type="qcurve" smooth="yes"/>
      <point x="322.388059701" y="718.76119403"/>
      <point x="295.0" y="541.626865672"/>
      <point x="295" y="467" type="qcurve" smooth="yes"/>
      <point x="295" y="463" type="line" smooth="yes"/>
      <point x="295.0" y="420.462686567"/>
      <point x="304.552238806" y="342.074626866"/>
    </contour>
    <contour>
      <point x="1020" y="653" type="qcurve" smooth="yes"/>
      <point x="1047.6119403" y="755.985074627"/>
      <point x="1075.0" y="932.626865672"/>
      <point x="1075" y="1008" type="qcurve" smooth="yes"/>
      <point x="1075" y="1012" type="line" smooth="yes"/>
      <point x="1075.0" y="1054.53731343"/>
      <point x="1065.44776119" y="1131.41791045"/>
      <point x="1055" y="1165" type="qcurve"/>
      <point x="356" y="219" type="line"/>
      <point x="388.089552239" y="171.985074627"/>
      <point x="490.343283582" y="117.0"/>
      <point x="559" y="117" type="qcurve" smooth="yes"/>
      <point x="719.447761194" y="117.0"/>
      <point x="960.298507463" y="426.880597015"/>
    </contour>
  </outline>
</glyph>
<glyph name="Thorn" format="1">
  <advance width="1171.456"/>
  <unicode hex="00DE"/>
  <outline>
    <contour>
      <point x="721" y="1188" type="line" smooth="yes"/>
      <point x="933.686567164" y="1188.0"/>
      <point x="1161.0" y="1006.3880597"/>
      <point x="1161" y="834" type="qcurve" smooth="yes"/>
      <point x="1161.0" y="604.149253731"/>
      <point x="821.179104478" y="328.0"/>
      <point x="557" y="328" type="qcurve" smooth="yes"/>
      <point x="297" y="328" type="line"/>
      <point x="215" y="0" type="line"/>
      <point x="27" y="0" type="line"/>
      <point x="393" y="1475" type="line"/>
      <point x="584" y="1475" type="line"/>
      <point x="512" y="1188" type="line"/>
    </contour>
    <contour>
      <point x="551" y="469" type="line" smooth="yes"/>
      <point x="740.552238806" y="469.0"/>
      <point x="973.0" y="654.074626866"/>
      <point x="973" y="819" type="qcurve" smooth="yes"/>
      <point x="973.0" y="930.940298507"/>
      <point x="831.52238806" y="1051.0"/>
      <point x="686" y="1051" type="qcurve" smooth="yes"/>
      <point x="471" y="1051" type="line"/>
      <point x="326" y="469" type="line"/>
    </contour>
  </outline>
</glyph>
<glyph name="ccedilla" format="1">
  <advance width="923.648"/>
  <unicode hex="00E7"/>
  <outline>
    <contour>
      <point x="610" y="1085" type="qcurve" smooth="yes"/>
      <point x="762.985074627" y="1085.0"/>
      <point x="908.805970149" y="915.074626866"/>
      <point x="920" y="780" type="qcurve"/>
      <point x="758" y="752" type="line"/>
      <point x="748.298507463" y="852.746268657"/>
      <point x="676.835820896" y="965.0"/>
      <point x="594" y="965" type="qcurve" smooth="yes"/>
      <point x="477.582089552" y="965.0"/>
      <point x="316.268656716" y="744.417910448"/>
      <point x="270" y="578" type="qcurve" smooth="yes"/>
      <point x="253.582089552" y="515.313432836"/>
      <point x="236.0" y="397.223880597"/>
      <point x="236" y="342" type="qcurve" smooth="yes"/>
      <point x="236" y="338" type="line" smooth="yes"/>
      <point x="236.0" y="218.597014925"/>
      <point x="338.656716418" y="100.0"/>
      <point x="420" y="100" type="qcurve" smooth="yes"/>
      <point x="488.656716418" y="100.0"/>
      <point x="606.805970149" y="194.701492537"/>
      <point x="668" y="285" type="qcurve"/>
      <point x="807" y="229" type="line"/>
      <point x="732.373134328" y="114.820895522"/>
      <point x="540.358208955" y="-17.0149253731"/>
      <point x="412" y="-20" type="qcurve"/>
      <point x="326" y="-117" type="line"/>
      <point x="346.895522388" y="-111.029850746"/>
      <point x="392.358208955" y="-104.0"/>
      <point x="414" y="-104" type="qcurve" smooth="yes"/>
      <point x="479.671641791" y="-104.0"/>
      <point x="555.0" y="-160.253731343"/>
      <point x="555" y="-211" type="qcurve" smooth="yes"/>
      <point x="555.0" y="-296.820895522"/>
      <point x="365.985074627" y="-389.0"/>
      <point x="213" y="-389" type="qcurve" smooth="yes"/>
      <point x="174.940298507" y="-389.0"/>
      <point x="87.5671641791" y="-385.47761194"/>
      <point x="51" y="-381" type="qcurve"/>
      <point x="68" y="-328" type="line"/>
      <point x="96.3582089552" y="-330.985074627"/>
      <point x="155.373134328" y="-336.0"/>
      <point x="180" y="-336" type="qcurve" smooth="yes"/>
      <point x="299.402985075" y="-336.0"/>
      <point x="422.0" y="-284.029850746"/>
      <point x="422" y="-240" type="qcurve" smooth="yes"/>
      <point x="422.0" y="-213.880597015"/>
      <point x="379.074626866" y="-184.0"/>
      <point x="344" y="-184" type="qcurve" smooth="yes"/>
      <point x="314.895522388" y="-184.0"/>
      <point x="261.089552239" y="-194.313432836"/>
      <point x="229" y="-207" type="qcurve"/>
      <point x="188" y="-174" type="line"/>
      <point x="336" y="-16" type="line"/>
      <point x="215.104477612" y="3.40298507463"/>
      <point x="61.0" y="189.552238806"/>
      <point x="61" y="350" type="qcurve" smooth="yes"/>
      <point x="61" y="354" type="line" smooth="yes"/>
      <point x="61.0" y="404.746268657"/>
      <point x="78.5671641791" y="523.28358209"/>
      <point x="92" y="580" type="qcurve" smooth="yes"/>
      <point x="145.731343284" y="790.447761194"/>
      <point x="407.014925373" y="1085.0"/>
    </contour>
  </outline>
</glyph>
<glyph name="dotlessi" format="1">
  <advance width="477.184"/>
  <unicode hex="0131"/>
  <outline>
    <contour>
      <point x="283" y="1065" type="line"/>
      <point x="461" y="1065" type="line"/>
      <point x="195" y="0" type="line"/>
      <point x="16" y="0" type="line"/>
    </contour>
  </outline>
</glyph>
<glyph name="lslash" format="1">
  <advance width="624.64"/>
  <unicode hex="0142"/>
  <outline>
    <contour>
      <point x="483" y="870" type="line"/>
      <point x="676" y="950" type="line"/>
      <point x="637" y="801" type="line"/>
      <point x="444" y="721" type="line"/>
      <point x="266" y="0" type="line"/>
      <point x="94" y="0" type="line"/>
      <point x="256" y="649" type="line"/>
      <point x="63" y="569" type="line"/>
      <point x="102" y="721" type="line"/>
      <point x="295" y="799" type="line"/>
      <point x="469" y="1509" type="line"/>
      <point x="651" y="1556" type="line"/>
    </contour>
  </outline>
</glyph>
<glyph name="oe" format="1">
  <advance width="1624.064"/>
  <unicode hex="0153"/>
  <outline>
    <contour>
      <point x="1280" y="1085" type="qcurve" smooth="yes"/>
      <point x="1441.94029851" y="1085.0"/>
      <point x="1577.0" y="873.567164179"/>
      <point x="1577" y="737" type="qcurve" smooth="yes"/>
      <point x="1577.0" y="682.52238806"/>
      <point x="1557.1641791" y="555.462686567"/>
      <point x="1540" y="498" type="qcurve"/>
      <point x="915" y="498" type="line"/>
      <point x="909.029850746" y="465.910447761"/>
      <point x="905.0" y="398.582089552"/>
      <point x="905" y="365" type="qcurve" smooth="yes"/>
      <point x="905" y="360" type="line" smooth="yes"/>
      <point x="905.0" y="236.865671642"/>
      <point x="1014.26865672" y="106.0"/>
      <point x="1118" y="106" type="qcurve" smooth="yes"/>
      <point x="1185.1641791" y="106.0"/>
      <point x="1327.14925373" y="169.507462687"/>
      <point x="1407" y="221" type="qcurve"/>
      <point x="1444" y="109" type="line"/>
      <point x="1356.68656716" y="49.2985074627"/>
      <point x="1194.23880597" y="-20.0"/>
      <point x="1092" y="-20" type="qcurve" smooth="yes"/>
      <point x="966.626865672" y="-20.0"/>
      <point x="813.925373134" y="126.686567164"/>
      <point x="799" y="264" type="qcurve"/>
      <point x="780" y="264" type="line"/>
      <point x="717.313432836" y="141.611940299"/>
      <point x="515.328358209" y="-20.0"/>
      <point x="381" y="-20" type="qcurve" smooth="yes"/>
      <point x="249.656716418" y="-20.0"/>
      <point x="61.0" y="167.910447761"/>
      <point x="61" y="350" type="qcurve" smooth="yes"/>
      <point x="61" y="354" type="line" smooth="yes"/>
      <point x="61.0" y="403.253731343"/>
      <point x="76.5671641791" y="518.014925373"/>
      <point x="90" y="571" type="qcurve" smooth="yes"/>
      <point x="143.731343284" y="788.164179104"/>
      <point x="407.910447761" y="1085.0"/>
      <point x="590" y="1085" type="qcurve" smooth="yes"/>
      <point x="715.373134328" y="1085.0"/>
      <point x="867.835820896" y="933.835820896"/>
      <point x="885" y="801" type="qcurve"/>
      <point x="897" y="801" type="line"/>
      <point x="964.164179104" y="930.850746269"/>
      <point x="1156.11940299" y="1085.0"/>
    </contour>
    <contour>
      <point x="741" y="489" type="qcurve" smooth="yes"/>
      <point x="758.164179104" y="558.402985075"/>
      <point x="774.0" y="674.76119403"/>
      <point x="774" y="727" type="qcurve" smooth="yes"/>
      <point x="774" y="731" type="line" smooth="yes"/>
      <point x="774.0" y="848.910447761"/>
      <point x="675.820895522" y="971.0"/>
      <point x="590" y="971" type="qcurve" smooth="yes"/>
      <point x="478.059701493" y="971.0"/>
      <point x="314.776119403" y="743.656716418"/>
      <point x="270" y="575" type="qcurve" smooth="yes"/>
      <point x="253.582089552" y="507.835820896"/>
      <point x="236.0" y="392.23880597"/>
      <point x="236" y="340" type="qcurve" smooth="yes"/>
      <point x="236" y="336" type="line" smooth="yes"/>
      <point x="236.0" y="213.611940299"/>
      <point x="330.850746269" y="94.0"/>
      <point x="401" y="94" type="qcurve" smooth="yes"/>
      <point x="521.895522388" y="94.0"/>
      <point x="698.462686567" y="324.074626866"/>
    </contour>
    <contour>
      <point x="1397" y="588" type="line"/>
      <point x="1405.95522388" y="632.029850746"/>
      <point x="1415.0" y="707.417910448"/>
      <point x="1415" y="741" type="qcurve" smooth="yes"/>
      <point x="1415.0" y="837.268656716"/>
      <point x="1347.29850746" y="975.0"/>
      <point x="1257" y="975" type="qcurve" smooth="yes"/>
      <point x="1156.25373134" y="975.0"/>
      <point x="975.044776119" y="752.925373134"/>
      <point x="934" y="588" type="qcurve"/>
    </contour>
  </outline>
</glyph>
<glyph name="florin" format="1">
  <advance width="876.544"/>
  <unicode hex="0192"/>
  <outline>
    <contour>
      <point x="778" y="1487" type="qcurve" smooth="yes"/>
      <point x="845.164179104" y="1487.0"/>
      <point x="954.970149254" y="1461.91044776"/>
      <point x="999" y="1444" type="qcurve"/>
      <point x="967" y="1309" type="line"/>
      <point x="931.925373134" y="1328.40298507"/>
      <point x="849.47761194" y="1360.0"/>
      <point x="795" y="1360" type="qcurve" smooth="yes"/>
      <point x="730.820895522" y="1360.0"/>
      <point x="647.895522388" y="1280.80597015"/>
      <point x="627" y="1192" type="qcurve" smooth="yes"/>
      <point x="565" y="942" type="line"/>
      <point x="825" y="942" type="line"/>
      <point x="793" y="815" type="line"/>
      <point x="535" y="815" type="line"/>
      <point x="295" y="-150" type="line" smooth="yes"/>
      <point x="261.417910448" y="-287.313432836"/>
      <point x="101.194029851" y="-389.0"/>
      <point x="-10" y="-389" type="qcurve" smooth="yes"/>
      <point x="-59.2537313433" y="-389.0"/>
      <point x="-141.432835821" y="-372.179104478"/>
      <point x="-178" y="-358" type="qcurve"/>
      <point x="-147" y="-238" type="line"/>
      <point x="-120.134328358" y="-249.940298507"/>
      <point x="-65.0895522388" y="-266.0"/>
      <point x="-33" y="-266" type="qcurve" smooth="yes"/>
      <point x="29.6865671642" y="-266.0"/>
      <point x="104.343283582" y="-200.134328358"/>
      <point x="123" y="-127" type="qcurve" smooth="yes"/>
      <point x="356" y="815" type="line"/>
      <point x="150" y="815" type="line"/>
      <point x="180" y="942" type="line"/>
      <point x="389" y="942" type="line"/>
      <point x="453" y="1206" type="line" smooth="yes"/>
      <point x="488.074626866" y="1354.50746269"/>
      <point x="652.626865672" y="1487.0"/>
    </contour>
  </outline>
</glyph>
<glyph name="circumflex" format="1">
  <advance width="1024.0"/>
  <unicode hex="02C6"/>
  <outline>
    <contour>
      <point x="834" y="1532" type="line"/>
      <point x="999" y="1204" type="line"/>
      <point x="915" y="1204" type="line"/>
      <point x="737" y="1413" type="line"/>
      <point x="457" y="1204" type="line"/>
      <point x="356" y="1204" type="line"/>
      <point x="686" y="1532" type="line"/>
    </contour>
  </outline>
</glyph>
<glyph name="caron" format="1">
  <advance width="1024.0"/>
  <unicode hex="02C7"/>
  <outline>
    <contour>
      <point x="981" y="1540" type="line"/>
      <point x="1081" y="1540" type="line"/>
      <point x="752" y="1212" type="line"/>
      <point x="604" y="1212" type="line"/>
      <point x="436" y="1540" type="line"/>
      <point x="522" y="1540" type="line"/>
      <point x="700" y="1333" type="line"/>
    </contour>
  </outline>
</glyph>
<glyph name="breve" format="1">
  <advance width="1024.0"/>
  <unicode hex="02D8"/>
  <outline>
    <contour>
      <point x="971" y="1540" type="qcurve"/>
      <point x="1061" y="1540" type="line"/>
      <point x="1016.2238806" y="1382.53731343"/>
      <point x="830.029850746" y="1206.0"/>
      <point x="686" y="1206" type="qcurve" smooth="yes"/>
      <point x="563.611940299" y="1206.0"/>
      <point x="436.0" y="1334.05970149"/>
      <point x="436" y="1446" type="qcurve" smooth="yes"/>
      <point x="436.0" y="1467.64179104"/>
      <point x="441.52238806" y="1515.37313433"/>
      <point x="446" y="1540" type="qcurve"/>
      <point x="532" y="1540" type="line"/>
      <point x="530.507462687" y="1529.55223881"/>
      <point x="530.0" y="1507.95522388"/>
      <point x="530" y="1499" type="qcurve" smooth="yes"/>
      <point x="530.0" y="1413.17910448"/>
      <point x="621.686567164" y="1327.0"/>
      <point x="709" y="1327" type="qcurve" smooth="yes"/>
      <point x="805.268656716" y="1327.0"/>
      <point x="931.447761194" y="1436.26865672"/>
    </contour>
  </outline>
</glyph>
<glyph name="dotaccent" format="1">
  <advance width="1024.0"/>
  <unicode hex="02D9"/>
  <outline>
    <contour>
      <point x="639" y="1409" type="line"/>
      <point x="819" y="1409" type="line"/>
      <point x="770" y="1212" type="line"/>
      <point x="590" y="1212" type="line"/>
    </contour>
  </outline>
</glyph>
<glyph name="emdash" format="1">
  <advance width="2048.0"/>
  <unicode hex="2014"/>
  <outline>
    <contour>
      <point x="104" y="653" type="line"/>
      <point x="2001" y="653" type="line"/>
      <point x="1964" y="502" type="line"/>
      <point x="68" y="502" type="line"/>
    </contour>
  </outline>
</glyph>
<glyph name="quotesinglbase" format="1">
  <advance width="405.504"/>
  <unicode hex="201A"/>
  <outline>
    <contour>
      <point x="53" y="231" type="line"/>
      <point x="266" y="231" type="line"/>
      <point x="-18" y="-242" type="line"/>
      <point x="-133" y="-242" type="line"/>
    </contour>
  </outline>
</glyph>
<glyph name="quotedblright" format="1">
  <advance width="737.28"/>
  <unicode hex="201D"/>
  <outline>
    <contour>
      <point x="381" y="1475" type="line"/>
      <point x="590" y="1475" type="line"/>
      <point x="305" y="1001" type="line"/>
      <point x="195" y="1001" type="line"/>
    </contour>
    <contour>
      <point x="715" y="1475" type="line"/>
      <point x="926" y="1475" type="line"/>
      <point x="641" y="1001" type="line"/>
      <point x="528" y="1001" type="line"/>
    </contour>
  </outline>
</glyph>
<glyph name="quotedblbase" format="1">
  <advance width="737.28"/>
  <unicode hex="201E"/>
  <outline>
    <contour>
      <point x="53" y="231" type="line"/>
      <point x="264" y="231" type="line"/>
      <point x="-20" y="-242" type="line"/>
      <point x="-133" y="-242" type="line"/>
    </contour>
    <contour>
      <point x="389" y="231" type="line"/>
      <point x="598" y="231" type="line"/>
      <point x="313" y="-242" type="line"/>
      <point x="201" y="-242" type="line"/>
    </contour>
  </outline>
</glyph>
<glyph name="dagger" format="1">
  <advance width="909.312"/>
  <unicode hex="2020"/>
  <outline>
    <contour>
      <point x="633" y="1040" type="line"/>
      <point x="985" y="1087" type="line"/>
      <point x="948" y="938" type="line"/>
      <point x="618" y="983" type="line"/>
      <point x="594" y="705" type="line"/>
      <point x="356" y="0" type="line"/>
      <point x="287" y="0" type="line"/>
      <point x="399" y="705" type="line"/>
      <point x="514" y="983" type="line"/>
      <point x="162" y="938" type="line"/>
      <point x="199" y="1087" type="line"/>
      <point x="526" y="1040" type="line"/>
      <point x="592" y="1475" type="line"/>
      <point x="786" y="1475" type="line"/>
    </contour>
  </outline>
</glyph>
<glyph name="daggerdbl" format="1">
  <advance width="970.752"/>
  <unicode hex="2021"/>
  <outline>
    <contour>
      <point x="674" y="1081" type="line"/>
      <point x="1026" y="1128" type="line"/>
      <point x="989" y="979" type="line"/>
      <point x="657" y="1024" type="line"/>
      <point x="631" y="737" type="line"/>
      <point x="516" y="451" type="line"/>
      <point x="868" y="496" type="line"/>
      <point x="831" y="346" type="line"/>
      <point x="500" y="393" type="line"/>
      <point x="451" y="0" type="line"/>
      <point x="254" y="0" type="line"/>
      <point x="401" y="393" type="line"/>
      <point x="45" y="346" type="line"/>
      <point x="84" y="496" type="line"/>
      <point x="416" y="451" type="line"/>
      <point x="442" y="737" type="line"/>
      <point x="559" y="1024" type="line"/>
      <point x="203" y="979" type="line"/>
      <point x="242" y="1128" type="line"/>
      <point x="573" y="1081" type="line"/>
      <point x="623" y="1475" type="line"/>
      <point x="819" y="1475" type="line"/>
    </contour>
  </outline>
</glyph>
<glyph name="ellipsis" format="1">
  <advance width="1269.76"/>
  <unicode hex="2026"/>
  <outline>
    <contour>
      <point x="96" y="219" type="qcurve" smooth="yes"/>
      <point x="146.746268657" y="219.0"/>
      <point x="213.0" y="152.746268657"/>
      <point x="213" y="102" type="qcurve" smooth="yes"/>
      <point x="213.0" y="52.0"/>
      <point x="146.746268657" y="-14.0"/>
      <point x="96" y="-14" type="qcurve" smooth="yes"/>
      <point x="46.0" y="-14.0"/>
      <point x="-20.0" y="52.0"/>
      <point x="-20" y="102" type="qcurve" smooth="yes"/>
      <point x="-20.0" y="152.746268657"/>
      <point x="46.0" y="219.0"/>
    </contour>
    <contour>
      <point x="530" y="219" type="qcurve" smooth="yes"/>
      <point x="580.746268657" y="219.0"/>
      <point x="647.0" y="152.746268657"/>
      <point x="647" y="102" type="qcurve" smooth="yes"/>
      <point x="647.0" y="52.0"/>
      <point x="580.746268657" y="-14.0"/>
      <point x="530" y="-14" type="qcurve" smooth="yes"/>
      <point x="480.0" y="-14.0"/>
      <point x="414.0" y="52.0"/>
      <point x="414" y="102" type="qcurve" smooth="yes"/>
      <point x="414.0" y="152.746268657"/>
      <point x="480.0" y="219.0"/>
    </contour>
    <contour>
      <point x="967" y="219" type="qcurve" smooth="yes"/>
      <point x="1015.50746269" y="219.0"/>
      <point x="1081.0" y="152.746268657"/>
      <point x="1081" y="102" type="qcurve" smooth="yes"/>
      <point x="1081.0" y="52.0"/>
      <point x="1015.50746269" y="-14.0"/>
      <point x="967" y="-14" type="qcurve" smooth="yes"/>
      <point x="914.76119403" y="-14.0"/>
      <point x="848.0" y="52.0"/>
      <point x="848" y="102" type="qcurve" smooth="yes"/>
      <point x="848.0" y="152.746268657"/>
      <point x="914.76119403" y="219.0"/>
    </contour>
  </outline>
</glyph>
<glyph name="guilsinglright" format="1">
  <advance width="552.96"/>
  <unicode hex="203A"/>
  <outline>
    <contour>
      <point x="266" y="909" type="line"/>
      <point x="500" y="532" type="line"/>
      <point x="86" y="156" type="line"/>
      <point x="-31" y="156" type="line"/>
      <point x="307" y="541" type="line"/>
      <point x="166" y="909" type="line"/>
    </contour>
  </outline>
</glyph>
<glyph name="trademark" format="1">
  <advance width="1597.44"/>
  <unicode hex="2122"/>
  <outline>
    <contour>
      <point x="1532" y="1475" type="line"/>
      <point x="1700" y="1475" type="line"/>
      <point x="1528" y="778" type="line"/>
      <point x="1425" y="778" type="line"/>
      <point x="1575" y="1370" type="line"/>
      <point x="1569" y="1370" type="line"/>
      <point x="1221" y="778" type="line"/>
      <point x="1108" y="778" type="line"/>
      <point x="1057" y="1370" type="line"/>
      <point x="1051" y="1370" type="line"/>
      <point x="903" y="778" type="line"/>
      <point x="803" y="778" type="line"/>
      <point x="975" y="1475" type="line"/>
      <point x="1145" y="1475" type="line"/>
      <point x="1192" y="903" type="line"/>
      <point x="1196" y="903" type="line"/>
    </contour>
    <contour>
      <point x="303" y="1475" type="line"/>
      <point x="848" y="1475" type="line"/>
      <point x="823" y="1384" type="line"/>
      <point x="608" y="1384" type="line"/>
      <point x="457" y="778" type="line"/>
      <point x="348" y="778" type="line"/>
      <point x="498" y="1384" type="line"/>
      <point x="281" y="1384" type="line"/>
    </contour>
  </outline>
</glyph>
<glyph name="bullet" format="1">
  <advance width="772.096"/>
  <outline>
    <contour>
      <point x="442" y="1040" type="qcurve" smooth="yes"/>
      <point x="558.417910448" y="1040.0"/>
      <point x="721.0" y="880.417910448"/>
      <point x="721" y="764" type="qcurve" smooth="yes"/>
      <point x="721.0" y="647.582089552"/>
      <point x="558.417910448" y="487.0"/>
      <point x="442" y="487" type="qcurve" smooth="yes"/>
      <point x="326.328358209" y="487.0"/>
      <point x="166.0" y="647.582089552"/>
      <point x="166" y="764" type="qcurve" smooth="yes"/>
      <point x="166.0" y="880.417910448"/>
      <point x="326.328358209" y="1040.0"/>
    </contour>
  </outline>
</glyph>
<glyph name="macron" format="1">
  <advance width="1024.0"/>
  <outline>
    <contour>
      <point x="440" y="1415" type="line"/>
      <point x="1020" y="1415" type="line"/>
      <point x="987" y="1288" type="line"/>
      <point x="410" y="1288" type="line"/>
    </contour>
  </outline>
</glyph>
<glyph name="registered" format="1">
  <advance width="1073.152"/>
  <outline>
    <contour>
      <point x="735" y="1006" type="qcurve"/>
      <point x="879" y="782" type="line"/>
      <point x="776" y="782" type="line"/>
      <point x="639" y="995" type="line"/>
      <point x="588" y="995" type="line"/>
      <point x="588" y="782" type="line"/>
      <point x="496" y="782" type="line"/>
      <point x="496" y="1296" type="line"/>
      <point x="672" y="1296" type="line" smooth="yes"/>
      <point x="754.089552239" y="1296.0"/>
      <point x="852.0" y="1220.13432836"/>
      <point x="852" y="1147" type="qcurve" smooth="yes"/>
      <point x="852.0" y="1088.79104478"/>
      <point x="787.23880597" y="1016.44776119"/>
    </contour>
    <contour>
      <point x="659" y="1489" type="qcurve" smooth="yes"/>
      <point x="853.776119403" y="1489.0"/>
      <point x="1116.0" y="1224.53731343"/>
      <point x="1116" y="1032" type="qcurve" smooth="yes"/>
      <point x="1116.0" y="839.462686567"/>
      <point x="852.28358209" y="575.0"/>
      <point x="659" y="575" type="qcurve" smooth="yes"/>
      <point x="464.970149254" y="575.0"/>
      <point x="203.0" y="837.970149254"/>
      <point x="203" y="1032" type="qcurve" smooth="yes"/>
      <point x="203.0" y="1224.53731343"/>
      <point x="466.462686567" y="1489.0"/>
    </contour>
    <contour>
      <point x="659" y="623" type="qcurve" smooth="yes"/>
      <point x="833.626865672" y="623.0"/>
      <point x="1063.0" y="859.611940299"/>
      <point x="1063" y="1032" type="qcurve" smooth="yes"/>
      <point x="1063.0" y="1205.13432836"/>
      <point x="832.134328358" y="1442.0"/>
      <point x="659" y="1442" type="qcurve" smooth="yes"/>
      <point x="485.119402985" y="1442.0"/>
      <point x="256.0" y="1205.13432836"/>
      <point x="256" y="1032" type="qcurve" smooth="yes"/>
      <point x="256.0" y="859.611940299"/>
      <point x="486.611940299" y="623.0"/>
    </contour>
    <contour>
      <point x="666" y="1063" type="line" smooth="yes"/>
      <point x="710.029850746" y="1063.0"/>
      <point x="760.0" y="1104.46268657"/>
      <point x="760" y="1147" type="qcurve" smooth="yes"/>
      <point x="760.0" y="1185.05970149"/>
      <point x="711.014925373" y="1225.0"/>
      <point x="664" y="1225" type="qcurve" smooth="yes"/>
      <point x="586" y="1225" type="line"/>
      <point x="586" y="1063" type="line"/>
    </contour>
  </outline>
</glyph>
